<svg xmlns="http://www.w3.org/2000/svg" xmlns:xlink="http://www.w3.org/1999/xlink" width="191.5" height="78.04" viewBox="0 0 191.5 78.04"><defs><style>.cls-1,.cls-5,.cls-6{fill:none;}.cls-2{fill:#231f20;}.cls-3{fill:#facac5;}.cls-4{clip-path:url(#clip-path);}.cls-5{stroke:#f499a2;stroke-width:1.64px;}.cls-5,.cls-6{stroke-miterlimit:10;}.cls-6{stroke:#231f20;stroke-width:2.83px;}</style><clipPath id="clip-path"><path class="cls-1" d="M25.48,64.66a7.3,7.3,0,0,0,.12-1.58q.79-7,3.58-9.78L35.5,47a11.08,11.08,0,0,0,3.43-7.68,9.62,9.62,0,0,0-2.88-7.44A9.49,9.49,0,0,0,28.64,29,11.18,11.18,0,0,0,21,32.47l-6.32,6.32A8.15,8.15,0,0,1,13.18,40a11.55,11.55,0,0,1-1.49.82,9.27,9.27,0,0,1-1.85.58c-.79.18-1.32.29-1.61.33L6.47,42c-.89.12-1.38.18-1.46.18-.81.16-1.39.26-1.76.3.12.13.27.27.43.43L25.3,64.48Z"/></clipPath></defs><title>tarou-hanako-logo</title><g id="レイヤー_2" data-name="レイヤー 2"><g id="レイヤー_1-2" data-name="レイヤー 1"><path class="cls-2" d="M28.45,64.72c0,.28-.11.66-.21,1.12a3.68,3.68,0,0,1-.33,1,3.45,3.45,0,0,1-.52.63,2.19,2.19,0,0,1-.76.52c-1,.32-2.1-.16-3.4-1.46l-5.71-5.71A7,7,0,0,1,12.36,63,7.08,7.08,0,0,1,7.17,60.8a7.32,7.32,0,0,1,0-10.35L1.61,44.92C.28,43.59-.23,42.39.09,41.34a2,2,0,0,1,.46-.7,4,4,0,0,1,.67-.54,3.37,3.37,0,0,1,1-.4,9.84,9.84,0,0,1,1.09-.24l1.28-.18a11.4,11.4,0,0,1,1.55-.22c.91-.1,1.55-.19,1.91-.27s.88-.21,1.55-.4a7.26,7.26,0,0,0,1.73-.69,6,6,0,0,0,1.27-1l6.32-6.31a14,14,0,0,1,9.72-4.31,12.29,12.29,0,0,1,9.47,3.7,12.44,12.44,0,0,1,3.74,9.51,13.9,13.9,0,0,1-4.29,9.74l-6.31,6.32q-2.07,2.07-2.67,8C28.54,64,28.5,64.44,28.45,64.72Zm-13-5.95L9.2,52.51a4.34,4.34,0,0,0-1.33,3.16,4.26,4.26,0,0,0,1.3,3.13,4.4,4.4,0,0,0,6.29,0Z"/><path class="cls-3" d="M25.48,64.66a7.3,7.3,0,0,0,.12-1.58q.79-7,3.58-9.78L35.5,47a11.08,11.08,0,0,0,3.43-7.68,9.62,9.62,0,0,0-2.88-7.44A9.49,9.49,0,0,0,28.64,29,11.18,11.18,0,0,0,21,32.47l-6.32,6.32A8.15,8.15,0,0,1,13.18,40a11.55,11.55,0,0,1-1.49.82,9.27,9.27,0,0,1-1.85.58c-.79.18-1.32.29-1.61.33L6.47,42c-.89.12-1.38.18-1.46.18-.81.16-1.39.26-1.76.3.12.13.27.27.43.43L25.3,64.48Z"/><g class="cls-4"><line class="cls-5" x1="4.68" y1="0.58" x2="40.65" y2="36.56"/><line class="cls-5" x1="4.68" y1="6.42" x2="40.65" y2="42.4"/><line class="cls-5" x1="4.68" y1="12.27" x2="40.65" y2="48.24"/><line class="cls-5" x1="4.68" y1="18.11" x2="40.65" y2="54.09"/><line class="cls-5" x1="4.68" y1="23.95" x2="40.65" y2="59.93"/><line class="cls-5" x1="4.68" y1="29.79" x2="40.65" y2="65.77"/><line class="cls-5" x1="4.68" y1="35.63" x2="40.65" y2="71.61"/><line class="cls-5" x1="4.68" y1="41.48" x2="40.65" y2="77.45"/></g><path class="cls-6" d="M37.1,26.76s-4.77-8.66-10-8.66-4.56,9.6,9.29,9.6h.24c13.86,0,14.57-9.6,9.29-9.6s-10,8.66-10,8.66"/><path class="cls-2" d="M69.6,39.58c.28,0,.65.11,1.12.21a3.15,3.15,0,0,1,1,.34,3.39,3.39,0,0,1,.64.51,2.63,2.63,0,0,1,.52.76c.32,1-.17,2.11-1.46,3.4l-5.71,5.71A7.34,7.34,0,0,1,55.33,60.9L49.8,66.42c-1.34,1.34-2.53,1.84-3.58,1.52a1.67,1.67,0,0,1-.7-.46,4,4,0,0,1-.55-.66,3.93,3.93,0,0,1-.39-1,9.75,9.75,0,0,1-.25-1.09l-.18-1.27a15.5,15.5,0,0,1-.21-1.55q-.15-1.36-.27-1.92c-.08-.36-.22-.88-.4-1.54a6.94,6.94,0,0,0-.7-1.74,5.92,5.92,0,0,0-1-1.27l-6.31-6.32A13.94,13.94,0,0,1,31,39.4,12.73,12.73,0,0,1,44.18,26.19a13.89,13.89,0,0,1,9.75,4.28l6.31,6.32q2.07,2.05,8,2.67C68.87,39.5,69.31,39.54,69.6,39.58Zm-6,13-6.25,6.26a4.4,4.4,0,0,0,6.29,0A4.26,4.26,0,0,0,65,55.73,4.31,4.31,0,0,0,63.64,52.57Z"/><path class="cls-3" d="M69.54,42.56A6.63,6.63,0,0,0,68,42.43q-7-.78-9.78-3.58l-6.32-6.32a11.13,11.13,0,0,0-7.68-3.43A9.62,9.62,0,0,0,36.74,32a9.49,9.49,0,0,0-2.85,7.41,11.17,11.17,0,0,0,3.46,7.65l6.32,6.32a8.52,8.52,0,0,1,1.18,1.48,13.79,13.79,0,0,1,.82,1.49,11.11,11.11,0,0,1,.58,1.85c.18.79.29,1.33.33,1.61s.12.87.24,1.76S47,62.94,47,63c.16.81.26,1.4.3,1.76l.42-.42L69.35,42.74Z"/><path d="M99.48,52.82c-1.17,1.25-1.81,1.8-2.32,1.8s-1-1-1-1.35-.21-.38,3.25-4.17c.12-.14.34-.34.34-.54s-.2-.28-.39-.28a11.81,11.81,0,0,0-3.28,1.26,1.65,1.65,0,0,1-.74.26c-.13,0-.53-.15,0-1.44a1.78,1.78,0,0,1,.67-.72l.77-.6a.39.39,0,0,1,.24-.12c.05,0,.14,0,0,.22l-.31.36,0,0a8.8,8.8,0,0,1,2.83-.72,1,1,0,0,1,.89.3,2.45,2.45,0,0,1,.35,1.12c0,.37-.08.91-3.08,4.39-.25.28-.12.37,0,.41s2-1.57,4.68-4.59c.24-.26.7-1,1.26-1,.32,0,.49.54.49.72a2.3,2.3,0,0,1-.37.69c-.48.67-2.49,3.66-2.47,4.33,0,.1.07.2.15.17A9.68,9.68,0,0,0,105.22,49a1.36,1.36,0,0,1,0-.41,1.88,1.88,0,0,1,.83-1.14c.22,0,.3.43.29.59-.1,2.45-3.28,6.33-4.66,6.53a1.29,1.29,0,0,1-1.21-1.11,8.51,8.51,0,0,1,.64-2.32l0,0Z"/><path d="M109.54,52.77a4.81,4.81,0,0,1-3,1.84c-.81,0-1.19-.73-1.21-1.46a3.21,3.21,0,0,1,3-2.94c.36,0,.8.09.8.54s-.54,1.37-2.68,2.07l0,.24c0,.42.33.57.69.57a4.63,4.63,0,0,0,2.31-1.28ZM108.16,51a.11.11,0,0,0-.14-.12,2.45,2.45,0,0,0-1.5,1.41A2.73,2.73,0,0,0,108.16,51Z"/><path d="M113.83,51a4.2,4.2,0,0,0-.9,2c0,.17,0,.55.25.55s1.4-.9,1.76-1.13l.08.36c-.53.58-1.67,1.75-2.48,1.75-.43,0-.59-.44-.59-.8a4.91,4.91,0,0,1,.09-.85c-.39.34-1.43,1.42-1.93,1.42s-.81-1.07-.81-1.46c0-1.31,2.21-2.42,3.16-2.48.23,0,.32.14.47.31.36-.63,1.34-2.94,2.15-2.94a.4.4,0,0,1,.36.43,2.43,2.43,0,0,1-.48,1.06Zm-3.55,2.09a.18.18,0,0,0,.17.21,5.79,5.79,0,0,0,2.1-1.95C110.59,52,110.35,52.35,110.28,53.08Z"/><path d="M119.4,51a4.2,4.2,0,0,0-.9,2c0,.17,0,.55.25.55s1.41-.9,1.76-1.13l.08.36c-.52.58-1.67,1.75-2.48,1.75-.42,0-.59-.44-.59-.8a4.91,4.91,0,0,1,.09-.85c-.39.34-1.43,1.42-1.93,1.42s-.81-1.07-.81-1.46c0-1.31,2.21-2.42,3.16-2.48.23,0,.32.14.47.31.36-.63,1.34-2.94,2.16-2.94a.4.4,0,0,1,.35.43,2.43,2.43,0,0,1-.48,1.06Zm-3.55,2.09a.18.18,0,0,0,.17.21,5.79,5.79,0,0,0,2.1-1.95C116.16,52,115.92,52.35,115.85,53.08Z"/><path d="M123.66,53c-.5.62-1.48,1.62-2.33,1.62-.65,0-1-.76-1-1.33a3,3,0,0,1,2.05-2.68c.19,0,.49.07.49.31,0,.56-1.1,1.55-1.57,1.87-.08.46.08.7.59.7s1.17-.59,1.62-.91Zm-1.07-3.09a1,1,0,0,1,1-.86.35.35,0,0,1,.36.35,1,1,0,0,1-.89,1A.45.45,0,0,1,122.59,49.89Z"/><path d="M128.82,52.23l.09.49c-.59.52-1.74,1.89-2.55,1.89-.42,0-.62-.36-.62-.74a4.06,4.06,0,0,1,1-1.91l0,0a8.88,8.88,0,0,0-1.71,1.7c-.17.21-.58.76-.88.76-.49,0-.61-.7-.62-1.08a3.72,3.72,0,0,1,1.31-2.44.54.54,0,0,1,.43-.13c.67,0,.61.18.61.24,0,.44-1.4,1.56-1.4,1.83a.13.13,0,0,0,.13.12c.07,0,.17-.1.22-.16a9.8,9.8,0,0,1,3.26-2.5s.11.06.17.21a2.37,2.37,0,0,1,.17.6c0,.44-1.37,1.28-1.37,2a.21.21,0,0,0,.2.2,2.29,2.29,0,0,0,1-.56Z"/><path d="M131.7,52.82l0,0c-.4.45-1.56,1.46-2.18,1.46s-.83-.81-.83-1.3c0-1.46,2.43-2.64,3.28-2.71.16,0,.59,0,.59.27s-.22.36-.37.46l-1.26.69c-.7.38-1.53.69-1.43,1.5,0,.09.08.11.18.11a2.08,2.08,0,0,0,1.41-.69l1.19-1.31c.11-.12.25-.31.43-.31s.42.38.42.57a1.7,1.7,0,0,1-.23.56L132,53.65l0,0,1.69-1.21.06.47-2.35,1.76c-1.17,1.85-2.14,2.56-2.58,2.56a.25.25,0,0,1-.25-.26c0-.8,1.69-2.2,2.3-2.65Z"/><path d="M144.79,52.25c0,.63-1.37,2.14-4.36,2.3-.8.05-1.92-.22-1.92-1.23,0-.36,0-.41,1.24-2.12-.31,0-1-.05-1-.43s1.56-.5,1.9-.6c.72-.7,1.45-1.64,2.56-1.64-.07.19-.15.34-1.07,1.42,2.51-.35,3.1-1.1,3.08-1.4s-.33-.64-1.62-.55a13.51,13.51,0,0,0-3.12.78c.06,0,.15.08.15.17s-.25.23-.4.25a7.77,7.77,0,0,0-1.54.42,1,1,0,0,1-.35.08c-.19,0-.28-.11-.28-.3a2.69,2.69,0,0,1,.52-.93,2.45,2.45,0,0,1,.93-.88,15.55,15.55,0,0,1,4.32-.85c1.91,0,2.37.76,2.37,1.36,0,1.8-3.37,2.26-4.68,2.51l-.22.2C142.06,51,144.79,51.18,144.79,52.25Zm-4.63-.2c-.15.15-.39.4-.39.63,0,.48.88.61,1.23.61,1,0,2.53-.73,2.53-1.17s-2.29-.75-2.75-.75Z"/><path d="M149.46,52.77a4.81,4.81,0,0,1-3,1.84c-.81,0-1.19-.73-1.21-1.46a3.22,3.22,0,0,1,3-2.94c.36,0,.81.09.81.54s-.55,1.37-2.69,2.07l0,.24c0,.42.34.57.69.57a4.7,4.7,0,0,0,2.32-1.28ZM148.08,51a.11.11,0,0,0-.14-.12,2.45,2.45,0,0,0-1.5,1.41A2.73,2.73,0,0,0,148.08,51Z"/><path d="M152.84,52.78c-.62.64-1.66,1.76-2.62,1.76-.81,0-1-.79-1-1.45a5.49,5.49,0,0,1,1.23-3.31c1-1.21,2-2.25,2.39-2.25.19,0,.23.27.22.41-.08,1.06-.37,2-2.78,4.38a1.27,1.27,0,0,0-.08.76c.1.26.26.48.56.48a3.85,3.85,0,0,0,1.91-1.11Zm-2.31-1.49a6.8,6.8,0,0,0,1.68-2.43,5.4,5.4,0,0,0-1.7,2.41Z"/><path d="M156.17,52.78c-.61.64-1.66,1.76-2.61,1.76s-1-.79-1-1.45a5.54,5.54,0,0,1,1.22-3.31c1-1.21,2-2.25,2.39-2.25.19,0,.24.27.23.41-.08,1.06-.37,2-2.78,4.38a1.13,1.13,0,0,0-.08.76c.1.26.25.48.55.48A3.88,3.88,0,0,0,156,52.45Zm-2.3-1.49a6.8,6.8,0,0,0,1.68-2.43,5.33,5.33,0,0,0-1.7,2.41Z"/><path d="M163.41,51c.09-.11.48-.61.64-.61s.53.1.53.24a1.54,1.54,0,0,1-.26.55,7.78,7.78,0,0,0-1,2.08.21.21,0,0,0,.21.22c.32,0,.85-.62,1.08-.82-.05-.42-.06-.62.51-1.37.18-.23.63-.77.95-.77s.36.35.36.55a2.59,2.59,0,0,1-.76,1.57.64.64,0,0,0,.39.16c.28,0,.67-.34.88-.5l0,.48a1.72,1.72,0,0,1-1.22.67,1.14,1.14,0,0,1-.67-.22c-.48.36-1.35,1.38-2,1.38a.53.53,0,0,1-.4-.21c-.12-.16-.27-.25-.2-1.3-.41.36-1.16,1.36-1.7,1.33A1.34,1.34,0,0,1,159.64,53a2.54,2.54,0,0,1,.92-1.86c.95-1,1.15-1,1.38-1,.5,0,.66.18.66.36,0,.57-1.44,1.77-1.89,2.12a2.52,2.52,0,0,0-.09.64c0,.09,0,.24.12.24a4.52,4.52,0,0,0,1.09-.82Z"/><path d="M170.94,52.77a4.79,4.79,0,0,1-3,1.84c-.82,0-1.19-.73-1.22-1.46a3.22,3.22,0,0,1,3-2.94c.35,0,.8.09.8.54s-.55,1.37-2.68,2.07l0,.24c0,.42.33.57.69.57a4.67,4.67,0,0,0,2.31-1.28ZM169.56,51c0-.08-.05-.14-.13-.12a2.42,2.42,0,0,0-1.5,1.41A2.73,2.73,0,0,0,169.56,51Z"/><path d="M171.66,52.33c-.2.7.07,1.28.49,1.22a1.34,1.34,0,0,0,.75-.58.73.73,0,0,1-.16-.43c0-.65.89-1.74,1.55-1.74.26,0,.33.28.33.49a3.75,3.75,0,0,1-.53,1.39,1.51,1.51,0,0,0,1.18-.41l.11.37a2.32,2.32,0,0,1-1.78.71,3.3,3.3,0,0,1-2,1.18c-.73,0-.83-1.08-.83-1.61a5.68,5.68,0,0,1,1.54-3.64c.9-1.08,2.65-2.44,3.11-2.44.23,0,.33.2.33.41,0,1-1.65,2.69-2.36,3.38Zm.4-1.18,0,0c2.33-2.31,2.57-3,2.76-3.35l0,0A11.15,11.15,0,0,0,172.06,51.15Z"/><path d="M84,31.1H81.92v8.61H80.59V31.1H78.44V29.88H84Z"/><path d="M93.43,39.71H92l-1.39-3.17H86.55l-1.36,3.17H83.76l4.18-9.83h1.31Zm-3.31-4.43L88.6,31.67l-1.54,3.61Z"/><path d="M100.82,39.71H99.15L95.68,35h1.17a3.22,3.22,0,0,0,1.86-.49,1.63,1.63,0,0,0,.72-1.43,1.74,1.74,0,0,0-.76-1.49A2.72,2.72,0,0,0,97,31.13H95.35v8.58H94V29.88h2.71A4.26,4.26,0,0,1,100,31a3,3,0,0,1,.76,2,3.38,3.38,0,0,1-.69,2.06,2.71,2.71,0,0,1-1.91,1.1Z"/><path d="M111.55,34.9a4.64,4.64,0,0,1-1.69,3.65,5.28,5.28,0,0,1-3.56,1.34,4.72,4.72,0,0,1-3.42-1.42,5,5,0,0,1-1.58-3.76,4.79,4.79,0,0,1,1.41-3.4,4.86,4.86,0,0,1,3.67-1.59,5.16,5.16,0,0,1,5.17,5.18Zm-1.33,0a3.72,3.72,0,0,0-1.17-2.77A3.67,3.67,0,0,0,106.41,31a3.59,3.59,0,0,0-2.66,1.15,3.49,3.49,0,0,0-1.12,2.5,3.66,3.66,0,0,0,1.34,3,3.72,3.72,0,0,0,2.4.86,4,4,0,0,0,2.51-.83A3.42,3.42,0,0,0,110.22,34.86Z"/><path d="M119.42,36.09a3.82,3.82,0,0,1-1,2.85,3.19,3.19,0,0,1-2.33.92,3.31,3.31,0,0,1-2.32-.88,3.39,3.39,0,0,1-1-2.61V29.88H114v6.44a2.35,2.35,0,0,0,.63,1.7,1.93,1.93,0,0,0,1.42.59,1.86,1.86,0,0,0,1.42-.61,2.67,2.67,0,0,0,.64-1.89V29.88h1.32Z"/><path d="M133.2,39l-.91.94-2.09-2a3.7,3.7,0,0,1-1.27,1.42,3.11,3.11,0,0,1-1.72.53,2.9,2.9,0,0,1-2.14-.92,3,3,0,0,1-.89-2.15,2.93,2.93,0,0,1,.53-1.68,3.9,3.9,0,0,1,1.43-1.26,3.46,3.46,0,0,1-.62-.92,2.15,2.15,0,0,1-.24-1,2.12,2.12,0,0,1,.34-1.13,2.28,2.28,0,0,1,.88-.84,2.41,2.41,0,0,1,1.19-.29,2.46,2.46,0,0,1,1.71.7,2.2,2.2,0,0,1,.76,1.67,2.12,2.12,0,0,1-.45,1.28,3,3,0,0,1-1.23,1l1.36,1.37,1.29-2.53h1.48l-1.79,3.47Zm-4-2.12-2-2a3.49,3.49,0,0,0-1.23.82,1.57,1.57,0,0,0-.48,1.09,2.11,2.11,0,0,0,.42,1.12,2.17,2.17,0,0,0,.6.46,1.66,1.66,0,0,0,.75.18,1.68,1.68,0,0,0,1.05-.41A3.4,3.4,0,0,0,129.19,36.92Zm-.35-4.85a1,1,0,0,0-.31-.74,1.11,1.11,0,0,0-.79-.29,1.2,1.2,0,0,0-.83.27.94.94,0,0,0-.3.68,1.3,1.3,0,0,0,.26.71,3.71,3.71,0,0,0,.66.68,2.65,2.65,0,0,0,1-.59A1,1,0,0,0,128.84,32.07Z"/><path d="M144.59,39.71h-1.3V35.27h-4.47v4.44h-1.24v-.39h-.09V29.88h1.33V34h4.47V29.88h1.3Z"/><path d="M154.87,39.71h-1.43l-1.38-3.17H148l-1.36,3.17h-1.43l4.18-9.83h1.3Zm-3.31-4.43L150,31.67l-1.53,3.61Z"/><path d="M163.28,39.71h-1.22l-5.26-7.87v7.87h-1.33V29.88H157l4.94,7.4v-7.4h1.32Z"/><path d="M173.57,39.71h-1.43l-1.39-3.17H166.7l-1.36,3.17h-1.43l4.18-9.83h1.3Zm-3.31-4.43-1.52-3.61-1.53,3.61Z"/><path d="M181.17,29.91l-3.82,4.8,3.8,5h-1.66l-3-3.94-1,1.28v2.66h-1.24v-.39h-.09V29.9h1.33V35l4-5.06Z"/><path d="M191.5,34.9a4.62,4.62,0,0,1-1.7,3.65,5.25,5.25,0,0,1-3.55,1.34,4.72,4.72,0,0,1-3.42-1.42,4.94,4.94,0,0,1-1.58-3.76,4.79,4.79,0,0,1,1.41-3.4,4.86,4.86,0,0,1,3.67-1.59,5.16,5.16,0,0,1,5.17,5.18Zm-1.33,0A3.84,3.84,0,0,0,186.36,31a3.59,3.59,0,0,0-2.66,1.15,3.49,3.49,0,0,0-1.12,2.5,3.63,3.63,0,0,0,1.34,3,3.72,3.72,0,0,0,2.4.86,4,4,0,0,0,2.51-.83A3.42,3.42,0,0,0,190.17,34.86Z"/></g></g></svg>