<svg xmlns="http://www.w3.org/2000/svg" viewBox="0 0 127.48 25.09"><defs><style>.cls-1{fill:#ff9a61;}.cls-2{fill:#fff;}.cls-3{fill:#ff7c5f;}</style></defs><title>blog_black</title><g id="レイヤー_2" data-name="レイヤー 2"><g id="レイヤー_1-2" data-name="レイヤー 1"><path class="cls-1" d="M32.5,19.46a21.83,21.83,0,0,1-1.62,5,5.49,5.49,0,0,1-2.54.16c-2.45-.41-4.18-2.25-3.87-4.12s2.54-3,5-2.64A5.16,5.16,0,0,1,32.5,19.46Z"/><path class="cls-1" d="M7.9,20.5c.32,1.87-1.41,3.71-3.86,4.12a5.49,5.49,0,0,1-2.37-.11A22.1,22.1,0,0,1,0,19.33a5.32,5.32,0,0,1,2.92-1.47C5.37,17.46,7.6,18.64,7.9,20.5Z"/><path class="cls-2" d="M22.59,14.78a9.76,9.76,0,0,1,.28,2.32c0,.18,0,.36,0,.54h0c-8.77-1.06-13,0-13,0h0c0-.18,0-.36,0-.54a9.76,9.76,0,0,1,.28-2.32Z"/><path class="cls-3" d="M16.34,21.21a5.09,5.09,0,0,1,4.27,1.94,5.88,5.88,0,0,1-4.27,1.94,5.87,5.87,0,0,1-4.28-1.94A5.1,5.1,0,0,1,16.34,21.21Z"/><path d="M22.85,17.64h0a8.72,8.72,0,0,1-2.24,5.51,5.09,5.09,0,0,0-4.27-1.94,5.1,5.1,0,0,0-4.28,1.94,8.72,8.72,0,0,1-2.24-5.51h0S14.08,16.58,22.85,17.64Z"/><path d="M6.38,14.14a.56.56,0,0,1-.56-.56A1.71,1.71,0,0,0,4.19,11.8a1.71,1.71,0,0,0-1.63,1.78.56.56,0,0,1-.56.56.57.57,0,0,1-.57-.56,2.85,2.85,0,0,1,2.76-2.91,2.84,2.84,0,0,1,2.75,2.91A.56.56,0,0,1,6.38,14.14Z"/><path d="M30.31,14.14a.56.56,0,0,1-.56-.56,1.63,1.63,0,1,0-3.25,0,.57.57,0,0,1-.57.56.56.56,0,0,1-.56-.56,2.76,2.76,0,1,1,5.51,0A.56.56,0,0,1,30.31,14.14Z"/><path d="M3.82,7.5H2.41V6.11H3.86C6,6.11,7.64,5.5,7.64,3v-1H2.11V.54H7.26V1.79H9.05V3C9.05,6.17,7.13,7.5,3.82,7.5Zm3.76-6V.1H8.3V1.46Zm1.08,0V.1h.72V1.46Z"/><path d="M10.6,7.3V.48h6.69V7.3Zm5.29-5.42H12v4h3.89Z"/><path d="M20.87,7.5H19.24V6.1h1.62c2.26,0,3.64-.86,3.64-2.79V2H21.13a3,3,0,0,1-2.44,2.31V2.79A2.12,2.12,0,0,0,20,.55h4V1.8h1.88V3.43C25.89,5.65,24.52,7.5,20.87,7.5Zm3.46-6V.1H25V1.47Zm1.08,0V.1h.72V1.47Z"/><path d="M28.49,7.46H27a24.1,24.1,0,0,0,.66-4.28h1.44A23.84,23.84,0,0,1,28.49,7.46ZM31.42,2.4V7.48H30V2.4h-3V1h3V.23h1.4V1h2.9V2.4Zm1.51,5.06a28.88,28.88,0,0,0-.57-4.27h1.4a27.77,27.77,0,0,1,.61,4.27Z"/><path d="M35.57,4.86V3.36h6.88v1.5Z"/><path d="M49.73,7.51l-.12-.62a7.37,7.37,0,0,1-2.69.42H43.77V6A20.6,20.6,0,0,0,45.11.33h1.51a22.56,22.56,0,0,1-1.3,5.58H47a6.73,6.73,0,0,0,2.4-.36l-.77-4H50l1.2,6Z"/><path d="M58.06,7.51l-1.79-5a1,1,0,0,0-1-.72H54.9c-.41,0-.63.24-.72.67l-.64,3.19H52.09l.75-3.82A1.66,1.66,0,0,1,54.57.38h.79a2.09,2.09,0,0,1,2.21,1.53l2,5.6Zm.53-5.72A.89.89,0,0,1,57.7.9a.89.89,0,1,1,1.78,0A.88.88,0,0,1,58.59,1.79Zm0-1.25a.36.36,0,0,0-.36.36.37.37,0,0,0,.36.37A.38.38,0,0,0,59,.9.37.37,0,0,0,58.59.54Z"/><path d="M60.7,4.86V3.36h6.87v1.5Z"/><path d="M71.15,7.48H69V6.07h2.1c2.83,0,3.55-1.66,3.55-4V1.86h1.4v.41C76.07,5,75.2,7.48,71.15,7.48ZM69.08,1.82V.54h3.54V1.82Zm0,2.22V2.77h3.54V4Zm5.46-2.52V.15h.72V1.52Zm1.08,0V.15h.72V1.52Z"/><path d="M80.57,7.6h-.48V6.43h.23a.2.2,0,0,0,.21-.21V5H80V7.79H78.82V5h-.55V7.6h-1V3.93h1.53V3.39H77.29V2.28h1.53V1.76h-.55a1.83,1.83,0,0,1-.12.44H77a4.88,4.88,0,0,0,.32-2h1.06c0,.15,0,.3,0,.45h.43V.08H80V.64h1.34V1.76H80v.52H81.5V3.39H80v.54H81.5V6.67A.81.81,0,0,1,80.57,7.6Zm1.26-1.4v-6h1.06v6Zm1.62,1.59H82.36V6.66h.87a.24.24,0,0,0,.26-.25V.08h1.1V6.65C84.59,7.58,84.27,7.79,83.45,7.79Z"/><path d="M87.37,3.06h.25V7.79H86.3V4.5a3.08,3.08,0,0,1-.85.54V3.28c.69-.36,1.14-1.53,1.14-3.2H88A7.13,7.13,0,0,1,87.37,3.06ZM91.54,2V3H93V4.2H91.54v1H93V6.39H91.54v1.4H90.15V2h-.29a8.31,8.31,0,0,1-.57,2H87.94A12.42,12.42,0,0,0,88.8.08h1.3c0,.22,0,.46-.06.7h3.14V2Z"/><path d="M96,7.46H94.48V6.08H96c2.68,0,3.7-1,3.7-3.1v-1H94.18V.54h5.23a1.28,1.28,0,0,0-.07.39,1.21,1.21,0,0,0,1.22,1.22,1.48,1.48,0,0,0,.56-.12V3C101.12,6,99.37,7.46,96,7.46Zm4.59-5.65a.88.88,0,0,1-.89-.88.9.9,0,1,1,.89.88Zm0-1.25a.38.38,0,0,0-.37.37.38.38,0,0,0,.75,0A.38.38,0,0,0,100.58.56Z"/><path d="M102.49,1.86V.46h7.16v1.4Zm2.38,5.62H103V6.09h1.82c2.23,0,3.22-.62,3.22-1.9V4H102.5V2.6h7.15V4C109.65,6.27,108.13,7.48,104.87,7.48Z"/><path d="M113.06,7.49h-2.24V6.09h2.1c2.66,0,3.62-1.4,3.62-3.55V.72h1.4V2.55C117.94,4.81,117.16,7.49,113.06,7.49Zm-2.13-5.57V.5a10.34,10.34,0,0,1,3.69.68V2.7A10.45,10.45,0,0,0,110.93,1.92Z"/><path d="M40.71,24.59H39V22.26h1.76c3.64,0,6-1.11,6-4.38V16H39.5v3.45H37.16V13.69h4.73v-1h2.36v1H49.1V18C49.1,22.13,46.45,24.59,40.71,24.59Z"/><path d="M54,24.59H51.5V12.72h2.41v9.43h.5c3.28,0,6.32-1.88,6.32-6.64v-.3h2.39v.26C63.12,21.63,59.26,24.59,54,24.59Z"/><path d="M68.76,24.56H65.2V22.21h3.52c4.72,0,5.92-2.79,5.92-6.69V14.39H77v1.46C77,20.38,75.53,24.56,68.76,24.56ZM65.3,15.09V13h5.93v2.13Zm0,3.71V16.69h5.93V18.8Z"/><path d="M87.37,17.39v7.15H85V18.1L79.1,19.59V17.16L85,15.68c2.42-.62,3.74-1.49,3.92-3.14h2.59C91.15,15.06,89.75,16.46,87.37,17.39Z"/><path d="M105.85,23.84h-3l-1.16-6.23-1.16,6.23h-3.1L96,14.71H98.3l.92,7,1.33-7h2.32l1.37,6.78.88-6.78h2.31Z"/><path d="M113.53,23.9H112c-2.45,0-3.75-1.44-3.75-3.89V18.56A3.59,3.59,0,0,1,112,14.65h1.57c2.41,0,3.75,1.21,3.75,3.8V20h-6.76v.21c0,1.12.56,1.54,1.52,1.54h1.53c.88,0,1.23-.32,1.3-.85h2.41C117.26,22.68,116.28,23.9,113.53,23.9Zm1.5-5.62a1.32,1.32,0,0,0-1.47-1.5h-1.51a1.38,1.38,0,0,0-1.47,1.49v.1H115Z"/><path d="M123.91,23.84H123a3.26,3.26,0,0,1-2-.64v.63h-2.31V12.61h2.31V15.4a3.23,3.23,0,0,1,2-.69h.9c2.27,0,3.57,1.16,3.57,3.53V20.3A3.27,3.27,0,0,1,123.91,23.84Zm1.24-5.28A1.38,1.38,0,0,0,123.63,17h-1.12A1.34,1.34,0,0,0,121,18.51V20a1.38,1.38,0,0,0,1.49,1.49h1.12A1.39,1.39,0,0,0,125.15,20Z"/></g></g></svg>