<svg xmlns="http://www.w3.org/2000/svg" viewBox="0 0 50 50"><defs><style>.cls-1{fill:#51a888;}.cls-2{fill:#fff;}</style></defs><title>mail</title><g id="レイヤー_2" data-name="レイヤー 2"><g id="レイヤー_1-2" data-name="レイヤー 1"><circle class="cls-1" cx="25" cy="25" r="25"/><path class="cls-1" d="M9.88,15.49H40.14a0,0,0,0,1,0,0v17a2,2,0,0,1-2,2H11.86a2,2,0,0,1-2-2v-17a0,0,0,0,1,0,0Z"/><path class="cls-2" d="M9.86,15.47,24.22,26.1a1.39,1.39,0,0,0,1.57,0L40.16,15.51Z"/><path class="cls-2" d="M20.06,24.24l-10,9.32a1.71,1.71,0,0,1-.27-.92v-16Z"/><path class="cls-2" d="M29,24.9l10.06,9.4a2.09,2.09,0,0,1-.94.21H11.88a2.25,2.25,0,0,1-.87-.17l10-9.39,4,2.92Z"/><path class="cls-2" d="M40.22,16.66v16a1.76,1.76,0,0,1-.25.85L30,24.19Z"/></g></g></svg>