<svg xmlns="http://www.w3.org/2000/svg" viewBox="0 0 100 86.91"><defs><style>.cls-1{fill:#49572a;}.cls-1,.cls-2{fill-rule:evenodd;}.cls-2{fill:#bac570;}</style></defs><title>mark1</title><g id="レイヤー_2" data-name="レイヤー 2"><g id="レイヤー_1-2" data-name="レイヤー 1"><path class="cls-1" d="M53.41,38.94q-1,1.43-1.86,2.91c-.31.53-.6,1.07-.88,1.61,4.72,9.57,5.47,21.18-.67,32a37,37,0,0,0,4.82-32.93A35.92,35.92,0,0,0,53.41,38.94Z"/><path class="cls-1" d="M9.13,18.66c-10.07,19.27,10,40.21,29.58,31.56C21.14,56.05,9.34,39.7,13,23.52c12.39-3.3,25.35,2.82,33.42,13.12a36.81,36.81,0,0,1,2.88-4.71A37.11,37.11,0,0,0,9.13,18.66Z"/><path class="cls-1" d="M5.55,52.18a23.25,23.25,0,0,1,6-7.2,22.5,22.5,0,0,1-3-3.58A31.4,31.4,0,0,0,0,52C9.16,67.4,33.59,67.13,38.79,50.49h0C32.31,64.69,14.32,63.24,5.55,52.18Z"/><path class="cls-1" d="M50,0A11.59,11.59,0,1,0,61.58,11.58,11.58,11.58,0,0,0,50,0Z"/><path class="cls-1" d="M39.09,50.26c6.09,14.1-6.57,25.08-20.23,23.28a22.45,22.45,0,0,1-1.32-9c-1.59-.32-3.1-.53-4.6-.83a32.39,32.39,0,0,0,2.17,13.35c17.08,4.57,32.66-11.87,24-26.82Z"/><path class="cls-2" d="M45.18,42.57A37,37,0,0,0,50,75.5c-15.27-27,12.07-58.64,37-52,3.62,16.18-8.18,32.53-25.75,26.7,19.6,8.65,39.65-12.29,29.58-31.56A37.08,37.08,0,0,0,45.18,42.57Z"/><path class="cls-2" d="M91.46,41.4a22.5,22.5,0,0,1-3,3.58,23.25,23.25,0,0,1,6,7.2c-8.77,11.06-26.76,12.51-33.23-1.69h0C66.41,67.13,90.84,67.4,100,52A31.4,31.4,0,0,0,91.46,41.4Z"/><path class="cls-2" d="M82.46,64.55a22.45,22.45,0,0,1-1.32,9c-13.66,1.8-26.32-9.18-20.23-23.28h0c-8.67,15,6.91,31.39,24,26.82a32.39,32.39,0,0,0,2.17-13.35C85.56,64,84.05,64.23,82.46,64.55Z"/><path class="cls-2" d="M68.1,75.77a22.66,22.66,0,0,1-6.24,5.9A22,22,0,0,1,53,71.37c1.56,8,4.81,13.41,9.61,15.54a30.91,30.91,0,0,0,9.7-9.11h0A21.61,21.61,0,0,1,68.1,75.77Z"/><path class="cls-1" d="M38.14,81.67a22.66,22.66,0,0,1-6.24-5.9,21.61,21.61,0,0,1-4.19,2h0a30.91,30.91,0,0,0,9.7,9.11C42,84.88,46.2,76.44,47,71.37A22,22,0,0,1,38.14,81.67Z"/></g></g></svg>