<svg xmlns="http://www.w3.org/2000/svg" viewBox="0 0 100 100"><defs><style>.cls-1{fill:#bac570;}.cls-2{fill:#49572a;fill-rule:evenodd;}</style></defs><title>mark2</title><g id="レイヤー_2" data-name="レイヤー 2"><g id="レイヤー_1-2" data-name="レイヤー 1"><path class="cls-1" d="M72.47,78.92a26.77,26.77,0,0,0-29.14,2.9,26.68,26.68,0,0,0,17.89,8.69,26.67,26.67,0,0,0,18.67-5.82L79.3,84A26.81,26.81,0,0,0,72.47,78.92Z"/><path class="cls-1" d="M74.59,34.45a45.56,45.56,0,0,0-3.73,18.13v.53c9.88-4.24,19-6,26.19,2.51.08-1.13.12-2.28.12-3.44a45.54,45.54,0,0,0-13-31.88A45.73,45.73,0,0,0,74.59,34.45Z"/><path class="cls-1" d="M71,56.37A45.46,45.46,0,0,0,81.56,82c.57.59,1.12,1.21,1.64,1.84h0l0,0,.59.61A45.54,45.54,0,0,0,96.51,60C90.05,50.15,81,52,71,56.37Z"/><path class="cls-2" d="M39.92,53.23A16.56,16.56,0,1,0,23.36,36.67,16.56,16.56,0,0,0,39.92,53.23Zm0-27.55a11,11,0,1,1-11,11A11,11,0,0,1,39.92,25.68Z"/><path class="cls-2" d="M50,0a50,50,0,1,0,50,50A49.88,49.88,0,0,0,50,0ZM24,13.94a44.43,44.43,0,0,1,54.69,2.15,50,50,0,0,0-13.62,35.4c-9.27,4.38-21.52,11.72-31.76,10.43-11.1-1.4-17.16-12.28-18.13-22.67C14.42,31,16.77,19.18,24,13.94Zm26,80.5A44.46,44.46,0,0,1,9.78,31.08a41.29,41.29,0,0,0-.11,8.68c1.22,13,9.15,25.82,22.73,27.68,11.34,1.55,23.21-5.2,33.17-10a49.51,49.51,0,0,0,4.15,14,31.08,31.08,0,0,0-31.88,6,2.78,2.78,0,0,0-.21,3.91,31,31,0,0,0,21.81,11.3c1,.07,2,.09,2.93.07A44.33,44.33,0,0,1,50,94.44Zm19.94-8.67a25.55,25.55,0,0,1-26.21-6,25.5,25.5,0,0,1,32.83,2.55A25.4,25.4,0,0,1,69.94,85.77Zm12.43-5.33C75.76,72.63,71.93,65.36,70.87,55c8.46-3.62,16.82-5.62,22.83,3.11A44.24,44.24,0,0,1,82.37,80.44ZM70.65,49A44.28,44.28,0,0,1,82.72,19.93,44.26,44.26,0,0,1,94.43,50.47C87.46,44.24,79.09,45.66,70.65,49Z"/></g></g></svg>