<svg xmlns="http://www.w3.org/2000/svg" viewBox="0 0 127.48 25.09"><defs><style>.cls-1{fill:#ff9a61;}.cls-2{fill:#fff;}.cls-3{fill:#ff7c5f;}</style></defs><title>nikoniko_white</title><g id="レイヤー_2" data-name="レイヤー 2"><g id="レイヤー_1-2" data-name="レイヤー 1"><path class="cls-1" d="M32.5,19.46a21.83,21.83,0,0,1-1.62,5,5.49,5.49,0,0,1-2.54.16c-2.45-.41-4.18-2.25-3.87-4.12s2.54-3,5-2.64A5.16,5.16,0,0,1,32.5,19.46Z"/><path class="cls-1" d="M7.9,20.5c.32,1.87-1.41,3.71-3.86,4.12a5.49,5.49,0,0,1-2.37-.11A22.1,22.1,0,0,1,0,19.33a5.32,5.32,0,0,1,2.92-1.47C5.37,17.46,7.6,18.64,7.9,20.5Z"/><path class="cls-2" d="M22.59,14.78a9.76,9.76,0,0,1,.28,2.32c0,.18,0,.36,0,.54h0c-8.77-1.06-13,0-13,0h0c0-.18,0-.36,0-.54a9.76,9.76,0,0,1,.28-2.32Z"/><path class="cls-3" d="M16.34,21.21a5.09,5.09,0,0,1,4.27,1.94,5.88,5.88,0,0,1-4.27,1.94,5.87,5.87,0,0,1-4.28-1.94A5.1,5.1,0,0,1,16.34,21.21Z"/><path d="M22.85,17.64h0a8.72,8.72,0,0,1-2.24,5.51,5.09,5.09,0,0,0-4.27-1.94,5.1,5.1,0,0,0-4.28,1.94,8.72,8.72,0,0,1-2.24-5.51h0S14.08,16.58,22.85,17.64Z"/><path class="cls-2" d="M6.38,14.14a.56.56,0,0,1-.56-.56A1.71,1.71,0,0,0,4.19,11.8a1.71,1.71,0,0,0-1.63,1.78.56.56,0,0,1-.56.56.57.57,0,0,1-.57-.56,2.85,2.85,0,0,1,2.76-2.91,2.84,2.84,0,0,1,2.75,2.91A.56.56,0,0,1,6.38,14.14Z"/><path class="cls-2" d="M30.31,14.14a.56.56,0,0,1-.56-.56,1.63,1.63,0,1,0-3.25,0,.57.57,0,0,1-.57.56.56.56,0,0,1-.56-.56,2.76,2.76,0,1,1,5.51,0A.56.56,0,0,1,30.31,14.14Z"/><path class="cls-2" d="M1.92,7.39V6H9.18V7.39Zm.29-5.32V.67H8.9v1.4Z"/><path class="cls-2" d="M10.59,7.36V6h5.29V2H10.59V.63h6.69V7.36Z"/><path class="cls-2" d="M18.67,7.39V6h7.26V7.39ZM19,2.07V.67h6.69v1.4Z"/><path class="cls-2" d="M27.34,7.36V6h5.29V2H27.34V.63H34V7.36Z"/><path class="cls-2" d="M36.86,7.46H35.39A24.25,24.25,0,0,0,36,3.18h1.44A22.14,22.14,0,0,1,36.86,7.46ZM39.79,2.4V7.48h-1.4V2.4h-3V1h3V.23h1.4V1h2.9V2.4ZM41.3,7.46a27.6,27.6,0,0,0-.57-4.27h1.41a27.77,27.77,0,0,1,.6,4.27Z"/><path class="cls-2" d="M44,4.86V3.36h6.87v1.5Z"/><path class="cls-2" d="M58.1,7.51,58,6.89a7.56,7.56,0,0,1-2.69.42H52.15V6c.62-1.07,1.05-3.66,1.34-5.62H55A22.61,22.61,0,0,1,53.7,5.91h1.62a6.69,6.69,0,0,0,2.4-.36L57,1.5H58.4l1.2,6Z"/><path class="cls-2" d="M66.43,7.51l-1.79-5a1,1,0,0,0-1-.72h-.36c-.41,0-.63.24-.72.67l-.65,3.19H60.46l.76-3.82A1.66,1.66,0,0,1,62.94.38h.8A2.1,2.1,0,0,1,66,1.91l2,5.6ZM67,1.79A.89.89,0,0,1,66.07.9a.9.9,0,1,1,1.79,0A.89.89,0,0,1,67,1.79ZM67,.54A.36.36,0,0,0,66.6.9a.38.38,0,0,0,.36.37A.39.39,0,0,0,67.34.9.38.38,0,0,0,67,.54Z"/><path class="cls-2" d="M69.07,4.86V3.36H76v1.5Z"/><path class="cls-2" d="M79.52,7.48H77.4V6.07h2.1c2.82,0,3.54-1.66,3.54-4V1.86h1.41v.41C84.45,5,83.57,7.48,79.52,7.48ZM77.46,1.82V.54H81V1.82Zm0,2.22V2.77H81V4Zm5.46-2.52V.15h.72V1.52Zm1.08,0V.15h.72V1.52Z"/><path class="cls-2" d="M89,7.6h-.48V6.43h.23a.19.19,0,0,0,.2-.21V5h-.56V7.79H87.2V5h-.56V7.6h-1V3.93H87.2V3.39H85.66V2.28H87.2V1.76h-.56a1.33,1.33,0,0,1-.11.43H85.4a4.79,4.79,0,0,0,.32-2h1.07c0,.15,0,.3,0,.46h.43V.08h1.14V.65h1.34V1.76H88.34v.52h1.54V3.39H88.34v.54h1.54V6.67A.81.81,0,0,1,89,7.6ZM90.2,6.2v-6h1.07v6Zm1.63,1.59H90.74V6.66h.86a.24.24,0,0,0,.27-.25V.08H93V6.65C93,7.58,92.65,7.79,91.83,7.79Z"/><path class="cls-2" d="M95.75,3.06H96V7.79H94.67V4.5a3,3,0,0,1-.84.54V3.28C94.51,2.92,95,1.75,95,.08h1.38A7.28,7.28,0,0,1,95.75,3.06ZM99.91,2V3h1.43V4.2H99.91v1h1.43V6.39H99.91v1.4H98.53V2h-.3a8.31,8.31,0,0,1-.57,2H96.32A12.7,12.7,0,0,0,97.18.08h1.3c0,.22,0,.46-.06.7h3.13V2Z"/><path class="cls-2" d="M104.36,7.46h-1.5V6.08h1.54c2.67,0,3.69-1,3.69-3.1v-1h-5.54V.54h5.23a1.28,1.28,0,0,0-.07.39,1.21,1.21,0,0,0,1.23,1.22,1.43,1.43,0,0,0,.55-.12V3C109.49,6,107.75,7.46,104.36,7.46ZM109,1.81a.88.88,0,0,1-.89-.88A.89.89,0,0,1,109,0a.9.9,0,0,1,.9.9A.89.89,0,0,1,109,1.81Zm0-1.25a.37.37,0,0,0-.37.37.37.37,0,0,0,.74,0A.37.37,0,0,0,109,.56Z"/><path class="cls-2" d="M110.86,1.86V.46H118v1.4Zm2.38,5.62h-1.82V6.09h1.81c2.24,0,3.22-.62,3.22-1.9V4h-5.58V2.6H118V4C118,6.27,116.51,7.48,113.24,7.48Z"/><path class="cls-2" d="M121.43,7.49H119.2V6.09h2.09c2.66,0,3.63-1.4,3.63-3.55V.72h1.4V2.55C126.32,4.81,125.54,7.49,121.43,7.49ZM119.3,1.92V.5a10.4,10.4,0,0,1,3.7.68V2.7A10.73,10.73,0,0,0,119.3,1.92Z"/><path class="cls-2" d="M40.71,24.59H39V22.26h1.76c3.64,0,6-1.11,6-4.38V16H39.5v3.45H37.16V13.69h4.73v-1h2.36v1H49.1V18C49.1,22.13,46.45,24.59,40.71,24.59Z"/><path class="cls-2" d="M54,24.59H51.5V12.72h2.41v9.43h.5c3.28,0,6.32-1.88,6.32-6.64v-.3h2.39v.26C63.12,21.63,59.26,24.59,54,24.59Z"/><path class="cls-2" d="M68.76,24.56H65.2V22.21h3.52c4.72,0,5.92-2.79,5.92-6.69V14.39H77v1.46C77,20.38,75.53,24.56,68.76,24.56ZM65.3,15.09V13h5.93v2.13Zm0,3.71V16.69h5.93V18.8Z"/><path class="cls-2" d="M87.37,17.39v7.15H85V18.1L79.1,19.59V17.16L85,15.68c2.42-.62,3.74-1.49,3.92-3.14h2.59C91.15,15.06,89.75,16.46,87.37,17.39Z"/><path class="cls-2" d="M105.85,23.84h-3l-1.16-6.23-1.16,6.23h-3.1L96,14.71H98.3l.92,7,1.33-7h2.32l1.37,6.78.88-6.78h2.31Z"/><path class="cls-2" d="M113.53,23.9H112c-2.45,0-3.75-1.44-3.75-3.89V18.56A3.59,3.59,0,0,1,112,14.65h1.57c2.41,0,3.75,1.21,3.75,3.8V20h-6.76v.21c0,1.12.56,1.54,1.52,1.54h1.53c.88,0,1.23-.32,1.3-.85h2.41C117.26,22.68,116.28,23.9,113.53,23.9Zm1.5-5.62a1.32,1.32,0,0,0-1.47-1.5h-1.51a1.38,1.38,0,0,0-1.47,1.49v.1H115Z"/><path class="cls-2" d="M123.91,23.84H123a3.26,3.26,0,0,1-2-.64v.63h-2.31V12.61h2.31V15.4a3.23,3.23,0,0,1,2-.69h.9c2.27,0,3.57,1.16,3.57,3.53V20.3A3.27,3.27,0,0,1,123.91,23.84Zm1.24-5.28A1.38,1.38,0,0,0,123.63,17h-1.12A1.34,1.34,0,0,0,121,18.51V20a1.38,1.38,0,0,0,1.49,1.49h1.12A1.39,1.39,0,0,0,125.15,20Z"/></g></g></svg>