<svg xmlns="http://www.w3.org/2000/svg" viewBox="0 0 104.3 17.12"><defs><style>.cls-1{fill:#ff9a61;}.cls-2{fill:#fff;}.cls-3{fill:#ff7c5f;}</style></defs><title>niko_logo_white2</title><g id="レイヤー_2" data-name="レイヤー 2"><g id="レイヤー_1-2" data-name="レイヤー 1"><path class="cls-1" d="M21.16,12.74A14,14,0,0,1,20.1,16a3.47,3.47,0,0,1-1.65.1c-1.6-.26-2.72-1.46-2.52-2.67s1.65-2,3.25-1.72A3.33,3.33,0,0,1,21.16,12.74Z"/><path class="cls-1" d="M5.15,13.43c.2,1.21-.93,2.41-2.52,2.67A3.59,3.59,0,0,1,1.09,16,14.36,14.36,0,0,1,0,12.66a3.41,3.41,0,0,1,1.9-.95C3.49,11.44,5,12.21,5.15,13.43Z"/><path class="cls-2" d="M14.71,9.7a6.71,6.71,0,0,1,.18,1.51c0,.12,0,.24,0,.35h0c-5.7-.69-8.48,0-8.48,0h0c0-.11,0-.23,0-.35A6.18,6.18,0,0,1,6.56,9.7Z"/><path class="cls-3" d="M10.63,13.89a3.32,3.32,0,0,1,2.79,1.26,3.71,3.71,0,0,1-5.57,0A3.3,3.3,0,0,1,10.63,13.89Z"/><path d="M14.87,11.56h0a5.73,5.73,0,0,1-1.46,3.59,3.32,3.32,0,0,0-2.79-1.26,3.3,3.3,0,0,0-2.78,1.26,5.73,5.73,0,0,1-1.46-3.59h0S9.17,10.87,14.87,11.56Z"/><path class="cls-2" d="M4.15,9.28a.36.36,0,0,1-.36-.36A1.12,1.12,0,0,0,2.73,7.76,1.11,1.11,0,0,0,1.67,8.92a.37.37,0,0,1-.74,0A1.85,1.85,0,0,1,2.73,7a1.85,1.85,0,0,1,1.79,1.9A.37.37,0,0,1,4.15,9.28Z"/><path class="cls-2" d="M19.73,9.28a.36.36,0,0,1-.36-.36,1.06,1.06,0,1,0-2.12,0,.37.37,0,0,1-.74,0,1.8,1.8,0,1,1,3.59,0A.36.36,0,0,1,19.73,9.28Z"/><path class="cls-2" d="M41.08,15.92a.82.82,0,0,1-.23.58.84.84,0,0,1-.64.24H32.16a.9.9,0,0,1-.66-.26.77.77,0,0,1-.2-.57.84.84,0,0,1,.22-.58.9.9,0,0,1,.64-.23h8.05a.85.85,0,0,1,.66.26A.75.75,0,0,1,41.08,15.92Zm-.93-6.44a.81.81,0,0,1-.87.83H33.1a.8.8,0,0,1-.65-.27.78.78,0,0,1-.23-.57.76.76,0,0,1,.24-.57.83.83,0,0,1,.64-.24h6.18a.83.83,0,0,1,.64.24A.79.79,0,0,1,40.15,9.48Z"/><path class="cls-2" d="M52.52,15.37a1.4,1.4,0,0,1-.43,1.06,1.5,1.5,0,0,1-1.07.4H44.58A.79.79,0,0,1,44,16.6a.8.8,0,0,1-.21-.54c0-.58.26-.87.8-.87h5.57a.93.93,0,0,0,.5-.09.69.69,0,0,0,.12-.48V10.69a1.15,1.15,0,0,0-.06-.47.56.56,0,0,0-.45-.14H44.64a.65.65,0,0,1-.56-.27.84.84,0,0,1-.2-.57.81.81,0,0,1,.21-.55.68.68,0,0,1,.55-.24H51A1.33,1.33,0,0,1,52.52,10Z"/><path class="cls-2" d="M65.08,15.92a.82.82,0,0,1-.23.58.84.84,0,0,1-.64.24h-8a.9.9,0,0,1-.66-.26.77.77,0,0,1-.2-.57.84.84,0,0,1,.22-.58.9.9,0,0,1,.64-.23h8a.85.85,0,0,1,.66.26A.75.75,0,0,1,65.08,15.92Zm-.93-6.44a.81.81,0,0,1-.87.83H57.1a.8.8,0,0,1-.65-.27.78.78,0,0,1-.23-.57.76.76,0,0,1,.24-.57.83.83,0,0,1,.64-.24h6.18a.83.83,0,0,1,.64.24A.79.79,0,0,1,64.15,9.48Z"/><path class="cls-2" d="M76.52,15.37a1.4,1.4,0,0,1-.43,1.06,1.5,1.5,0,0,1-1.07.4H68.58A.79.79,0,0,1,68,16.6a.8.8,0,0,1-.21-.54c0-.58.26-.87.8-.87h5.57a.93.93,0,0,0,.5-.09.69.69,0,0,0,.12-.48V10.69a1.15,1.15,0,0,0-.06-.47.56.56,0,0,0-.45-.14H68.64a.65.65,0,0,1-.56-.27.84.84,0,0,1-.2-.57.81.81,0,0,1,.21-.55.68.68,0,0,1,.55-.24H75A1.33,1.33,0,0,1,76.52,10Z"/><path class="cls-2" d="M89.46,11.65a1.65,1.65,0,0,1-.08.46l-1.44,4.34c-.16.45-.42.67-.79.67a.87.87,0,0,1-.85-.69l-.88-2.66-.89,2.66a.85.85,0,0,1-.84.69c-.38,0-.64-.22-.79-.67l-1.44-4.34a1.38,1.38,0,0,1-.09-.46.67.67,0,0,1,.26-.54,1,1,0,0,1,.63-.19.78.78,0,0,1,.84.62L83.77,14l.88-2.52a.74.74,0,0,1,.77-.53.75.75,0,0,1,.77.53L87.06,14l.67-2.43a.78.78,0,0,1,.84-.62,1,1,0,0,1,.64.2A.63.63,0,0,1,89.46,11.65Z"/><path class="cls-2" d="M96.79,13.54c0,.56-.31.85-1,.85H91.63a1.11,1.11,0,0,0,.55.94,2.26,2.26,0,0,0,1.3.38,2.45,2.45,0,0,0,1.13-.24c.08,0,.3-.19.66-.43a1.13,1.13,0,0,1,.65-.25.75.75,0,0,1,.55.23.78.78,0,0,1,.2.53c0,.49-.36.89-1.09,1.19a5.56,5.56,0,0,1-2.14.38A4.07,4.07,0,0,1,91,16.44a2.76,2.76,0,0,1-1.1-2.39A2.86,2.86,0,0,1,91,11.7a3.9,3.9,0,0,1,2.52-.79,3.83,3.83,0,0,1,2.33.69A2.32,2.32,0,0,1,96.79,13.54Zm-1.71-.19c-.12-.67-.69-1-1.72-1a1.7,1.7,0,0,0-1.69,1Z"/><path class="cls-2" d="M104.3,14a3.07,3.07,0,0,1-.84,2.23,2.94,2.94,0,0,1-2.19.86,2.43,2.43,0,0,1-2-.77c0,.52-.3.78-.91.78s-.84-.31-.84-.93V8.81a.9.9,0,0,1,.23-.64.75.75,0,0,1,.6-.24c.61,0,.91.29.91.86v2.9a2.59,2.59,0,0,1,2-.77,3,3,0,0,1,2.2.86A3.11,3.11,0,0,1,104.3,14Zm-1.72,0a1.72,1.72,0,0,0-.48-1.22,1.53,1.53,0,0,0-1.17-.51,1.67,1.67,0,0,0-1.17.48A1.62,1.62,0,0,0,99.25,14a1.64,1.64,0,0,0,.47,1.17,1.56,1.56,0,0,0,1.19.49,1.69,1.69,0,0,0,1.2-.45A1.57,1.57,0,0,0,102.58,14.06Z"/><path class="cls-2" d="M33.9,2.91A5.2,5.2,0,0,1,32.76,4.7l-.35-.23a4.23,4.23,0,0,0,1.09-1.7ZM35.17,2V4.83c0,.67-.53.67-1.42.66a1.69,1.69,0,0,0-.13-.4h.87a.23.23,0,0,0,.25-.25V2h-2v-.4h2V.35l.57,0a.13.13,0,0,1-.14.11V1.58h2V2Zm1.08.75a11.93,11.93,0,0,1,1.26,1.75l-.38.22A10.53,10.53,0,0,0,35.9,2.93Z"/><path class="cls-2" d="M38.42,2.6h5V3H38.65a.29.29,0,0,1-.19.11Z"/><path class="cls-2" d="M49.18,5.37c-.1-.2-.2-.42-.32-.63-1.25.13-3.3.26-4.22.3a.17.17,0,0,1-.11.12l-.16-.54.63,0c.39-1.15,1-2.94,1.29-4.14l.58.15c0,.06-.08.09-.17.09-.33,1.1-.85,2.71-1.26,3.88,1,0,2.42-.14,3.21-.21A9.94,9.94,0,0,0,47.58,2.9l.36-.2a11.72,11.72,0,0,1,1.65,2.48Z"/><path class="cls-2" d="M50.15,3.27c.46-.48,1.4-1.54,1.75-1.9a.64.64,0,0,1,.46-.23.74.74,0,0,1,.49.23,28.64,28.64,0,0,1,2.92,3.27L55.42,5a26.36,26.36,0,0,0-2.78-3.23.4.4,0,0,0-.26-.15c-.08,0-.15.06-.25.15C51.85,2,51,3.05,50.58,3.48v0a.16.16,0,0,1-.06.12Zm4.55-3A.67.67,0,1,1,54,.9.67.67,0,0,1,54.7.23Zm.46.67a.47.47,0,1,0-.46.47A.46.46,0,0,0,55.16.9Z"/><path class="cls-2" d="M56.42,2.6h5V3H56.65a.29.29,0,0,1-.19.11Z"/><path class="cls-2" d="M62.66,2.05a8.67,8.67,0,0,1,1.61.54L64.09,3a8.65,8.65,0,0,0-1.61-.55ZM63,5A6.27,6.27,0,0,0,67.1,1.49a4.22,4.22,0,0,0,.36.27,6.61,6.61,0,0,1-4,3.54.13.13,0,0,1-.07.15Zm.3-4.42a10.69,10.69,0,0,1,1.61.59l-.2.37A9.24,9.24,0,0,0,63.14.91ZM66.13.37a5,5,0,0,1,.77.87l-.23.17A5.28,5.28,0,0,0,65.9.53ZM67,0a5.32,5.32,0,0,1,.78.86L67.5,1a4.79,4.79,0,0,0-.76-.87Z"/><path class="cls-2" d="M73.46,2.7l0,0a.18.18,0,0,1-.09,0c-.45.15-1.12.4-1.62.61,0,.14,0,.3,0,.47s0,.41,0,.64l-.44,0c0-.22,0-.5,0-.73V3.46c-.68.33-1.23.73-1.23,1.09s.41.52,1.24.52A13.13,13.13,0,0,0,72.82,5v.4c-.35,0-.89,0-1.51,0-1.15,0-1.66-.28-1.66-.89s.69-1,1.59-1.49c0-.38-.2-.56-.44-.56a2,2,0,0,0-1.43.84c-.17.19-.4.42-.66.66l-.3-.3a4.13,4.13,0,0,0,1.51-2.21H68.59V1.13H70a6.93,6.93,0,0,0,.16-.86l.59.07c0,.06-.06.1-.15.11a6.58,6.58,0,0,1-.15.67A8.75,8.75,0,0,0,72.55.77l.07.4a9.39,9.39,0,0,1-2.25.34,5.2,5.2,0,0,1-.43,1h0a1.58,1.58,0,0,1,1-.39c.41,0,.66.29.74.78.51-.23,1.14-.48,1.62-.66Z"/><path class="cls-2" d="M79.68,3H78.59L78.5,3a3.42,3.42,0,0,1-.93,1.57,13.41,13.41,0,0,1,1.82.83l-.29.34a13,13,0,0,0-1.88-.89,5.81,5.81,0,0,1-2.54.89,1.51,1.51,0,0,0-.23-.35,5.82,5.82,0,0,0,2.32-.71c-.41-.15-.83-.29-1.22-.4l-.13.25L75,4.4c.21-.38.46-.91.7-1.45H74.24V2.56h1.64c.16-.38.33-.76.46-1.09l.51.1c0,.05,0,.07-.13.07-.11.27-.25.59-.39.92h3.35ZM74.85,1.26v.91h-.41V.88h2.29V.13l.54,0s0,.07-.12.08V.88h2.33V2.17h-.42V1.26ZM76.15,3c-.15.34-.3.67-.45,1,.46.12,1,.28,1.45.45A2.86,2.86,0,0,0,78.06,3Z"/><path class="cls-2" d="M84,5.66A17.94,17.94,0,0,0,81.6,3.43c-.3-.24-.41-.41-.41-.62a.77.77,0,0,1,.32-.55c.55-.5,1.57-1.47,2.15-2.06l.51.33A.16.16,0,0,1,84,.59H84c-.6.58-1.53,1.39-2,1.85-.15.14-.26.26-.26.36s.11.22.32.38a20.69,20.69,0,0,1,2.37,2.17Z"/><path class="cls-2" d="M87.06,2.27a6.51,6.51,0,0,1-.78,1c0-.09-.15-.29-.21-.38A7.61,7.61,0,0,0,87.62.18l.49.16S88,.4,88,.4a10.28,10.28,0,0,1-.57,1.27l.17.05s0,.06-.11.07V5.71h-.4Zm4.71-.72H89.85v.92h1.78v.38H89.85v1h1.86V4.2H89.85V5.7h-.41V1.55h-.56A6.38,6.38,0,0,1,88,2.9a2,2,0,0,0-.31-.27A7.1,7.1,0,0,0,89,.22l.51.15s-.06.06-.14.06a7.28,7.28,0,0,1-.28.73h2.71Z"/><path class="cls-2" d="M95.91.41l.35.39a.26.26,0,0,1-.17.06c-.56.48-1.69,1.61-2.06,2h0a3.39,3.39,0,0,1,1.58-.43,1.38,1.38,0,0,1,1.57,1.4c0,1.12-1.09,1.58-3,1.67A1.9,1.9,0,0,0,94,5.1c1.79-.07,2.73-.41,2.73-1.26,0-.68-.49-1-1.24-1a3.6,3.6,0,0,0-2.16.84,5.12,5.12,0,0,0-.49.52l-.3-.29c.55-.63,2.24-2.33,2.9-3-.29,0-1.53.11-2.14.14a.16.16,0,0,1-.12.09l-.06-.5A23.94,23.94,0,0,0,95.82.46Z"/><path class="cls-2" d="M98.93,2.34a14.1,14.1,0,0,1,2.48-.49,1.27,1.27,0,0,1,1.43,1.37v0c0,1.09-.87,1.89-2.59,2.35a2.89,2.89,0,0,0-.27-.37c1.53-.36,2.4-1.08,2.4-2a.88.88,0,0,0-1-1,8.2,8.2,0,0,0-2.17.47s0,.11-.11.14ZM99.77.27a11.07,11.07,0,0,1,2.41.47l-.13.42A10.56,10.56,0,0,0,99.67.68Z"/></g></g></svg>