<svg xmlns="http://www.w3.org/2000/svg" viewBox="0 0 104.3 10.1"><defs><style>.cls-1{fill:#ff9a61;}.cls-2{fill:#fff;}.cls-3{fill:#ff7c5f;}</style></defs><title>niko_logo_black</title><g id="レイヤー_2" data-name="レイヤー 2"><g id="レイヤー_1-2" data-name="レイヤー 1"><path class="cls-1" d="M21.16,5.72A14,14,0,0,1,20.1,9a3.61,3.61,0,0,1-1.65.1c-1.6-.26-2.72-1.47-2.52-2.68s1.65-2,3.25-1.72A3.39,3.39,0,0,1,21.16,5.72Z"/><path class="cls-1" d="M5.15,6.4c.2,1.21-.93,2.42-2.52,2.68A3.58,3.58,0,0,1,1.09,9,14.22,14.22,0,0,1,0,5.63a3.47,3.47,0,0,1,1.9-1C3.49,4.42,5,5.19,5.15,6.4Z"/><path class="cls-2" d="M14.71,2.67a6.8,6.8,0,0,1,.18,1.52c0,.11,0,.23,0,.35h0c-5.7-.7-8.48,0-8.48,0h0c0-.12,0-.24,0-.35a6.27,6.27,0,0,1,.18-1.52Z"/><path class="cls-3" d="M10.63,6.86a3.32,3.32,0,0,1,2.79,1.26,3.84,3.84,0,0,1-2.79,1.27A3.83,3.83,0,0,1,7.85,8.12,3.3,3.3,0,0,1,10.63,6.86Z"/><path d="M14.87,4.54h0a5.68,5.68,0,0,1-1.46,3.58,3.32,3.32,0,0,0-2.79-1.26A3.3,3.3,0,0,0,7.85,8.12,5.68,5.68,0,0,1,6.39,4.54h0S9.17,3.84,14.87,4.54Z"/><path d="M4.15,2.26a.37.37,0,0,1-.36-.37A1.12,1.12,0,0,0,2.73.73,1.11,1.11,0,0,0,1.67,1.89a.37.37,0,0,1-.74,0A1.85,1.85,0,0,1,2.73,0,1.85,1.85,0,0,1,4.52,1.89.38.38,0,0,1,4.15,2.26Z"/><path d="M19.73,2.26a.37.37,0,0,1-.36-.37,1.06,1.06,0,1,0-2.12,0,.37.37,0,1,1-.74,0,1.8,1.8,0,1,1,3.59,0A.37.37,0,0,1,19.73,2.26Z"/><path d="M41.08,8.9a.81.81,0,0,1-.23.57.84.84,0,0,1-.64.24H32.16a.86.86,0,0,1-.66-.26.75.75,0,0,1-.2-.56.81.81,0,0,1,.22-.58.86.86,0,0,1,.64-.24h8.05a.88.88,0,0,1,.66.26A.78.78,0,0,1,41.08,8.9Zm-.93-6.45a.81.81,0,0,1-.23.59.83.83,0,0,1-.64.24H33.1A.83.83,0,0,1,32.45,3a.8.8,0,0,1-.23-.58.74.74,0,0,1,.24-.56.83.83,0,0,1,.64-.24h6.18a.83.83,0,0,1,.64.24A.77.77,0,0,1,40.15,2.45Z"/><path d="M52.52,8.35a1.4,1.4,0,0,1-.43,1.05A1.5,1.5,0,0,1,51,9.81H44.58a.77.77,0,0,1-.8-.78c0-.58.26-.86.8-.86h5.57a.91.91,0,0,0,.5-.1.66.66,0,0,0,.12-.48V3.67a1.15,1.15,0,0,0-.06-.47.53.53,0,0,0-.45-.15H44.64a.65.65,0,0,1-.56-.26.85.85,0,0,1-.2-.58.82.82,0,0,1,.21-.55.68.68,0,0,1,.55-.24H51a1.33,1.33,0,0,1,1.51,1.5Z"/><path d="M65.08,8.9a.81.81,0,0,1-.23.57.84.84,0,0,1-.64.24h-8a.86.86,0,0,1-.66-.26.75.75,0,0,1-.2-.56.81.81,0,0,1,.22-.58.86.86,0,0,1,.64-.24h8a.88.88,0,0,1,.66.26A.78.78,0,0,1,65.08,8.9Zm-.93-6.45a.81.81,0,0,1-.23.59.83.83,0,0,1-.64.24H57.1A.83.83,0,0,1,56.45,3a.8.8,0,0,1-.23-.58.74.74,0,0,1,.24-.56.83.83,0,0,1,.64-.24h6.18a.83.83,0,0,1,.64.24A.77.77,0,0,1,64.15,2.45Z"/><path d="M76.52,8.35a1.4,1.4,0,0,1-.43,1.05A1.5,1.5,0,0,1,75,9.81H68.58a.77.77,0,0,1-.8-.78c0-.58.26-.86.8-.86h5.57a.91.91,0,0,0,.5-.1.66.66,0,0,0,.12-.48V3.67a1.15,1.15,0,0,0-.06-.47.53.53,0,0,0-.45-.15H68.64a.65.65,0,0,1-.56-.26.85.85,0,0,1-.2-.58.82.82,0,0,1,.21-.55.68.68,0,0,1,.55-.24H75a1.33,1.33,0,0,1,1.51,1.5Z"/><path d="M89.46,4.63a1.65,1.65,0,0,1-.08.45L87.94,9.43c-.16.44-.42.67-.79.67a.87.87,0,0,1-.85-.7l-.88-2.65L84.53,9.4a.85.85,0,0,1-.84.7.83.83,0,0,1-.79-.67L81.46,5.08a1.38,1.38,0,0,1-.09-.45.65.65,0,0,1,.26-.54,1,1,0,0,1,.63-.2.78.78,0,0,1,.84.63l.67,2.42.88-2.52a.74.74,0,0,1,.77-.53.75.75,0,0,1,.77.53l.87,2.52.67-2.42a.78.78,0,0,1,.84-.63,1,1,0,0,1,.64.21A.62.62,0,0,1,89.46,4.63Z"/><path d="M96.79,6.51c0,.57-.31.85-1,.85H91.63a1.12,1.12,0,0,0,.55,1,2.26,2.26,0,0,0,1.3.37,2.45,2.45,0,0,0,1.13-.24c.08,0,.3-.18.66-.43a1.11,1.11,0,0,1,.65-.24.75.75,0,0,1,.55.23.76.76,0,0,1,.2.53c0,.48-.36.88-1.09,1.18a5.55,5.55,0,0,1-2.14.39A4.07,4.07,0,0,1,91,9.41,2.74,2.74,0,0,1,89.88,7,2.88,2.88,0,0,1,91,4.67a4,4,0,0,1,2.52-.79,3.77,3.77,0,0,1,2.33.7A2.3,2.3,0,0,1,96.79,6.51Zm-1.71-.18c-.12-.68-.69-1-1.72-1a1.68,1.68,0,0,0-1.69,1Z"/><path d="M104.3,7a3.06,3.06,0,0,1-.84,2.23,2.91,2.91,0,0,1-2.19.87,2.43,2.43,0,0,1-2-.77c0,.52-.3.78-.91.78s-.84-.31-.84-.94V1.78a.89.89,0,0,1,.23-.63.75.75,0,0,1,.6-.24c.61,0,.91.28.91.86V4.66a2.59,2.59,0,0,1,2-.77,2.93,2.93,0,0,1,2.2.87A3.08,3.08,0,0,1,104.3,7Zm-1.72,0a1.76,1.76,0,0,0-.48-1.23,1.56,1.56,0,0,0-1.17-.5,1.62,1.62,0,0,0-1.17.48A1.59,1.59,0,0,0,99.25,7a1.66,1.66,0,0,0,.47,1.18,1.56,1.56,0,0,0,1.19.49,1.65,1.65,0,0,0,1.2-.46A1.53,1.53,0,0,0,102.58,7Z"/></g></g></svg>