<svg xmlns="http://www.w3.org/2000/svg" viewBox="0 0 187.66 56.41"><defs><style>.cls-1{fill:#fff;}.cls-2{fill:#75c7c3;}</style></defs><title>seisaku_logo_white</title><g id="レイヤー_2" data-name="レイヤー 2"><g id="レイヤー_1-2" data-name="レイヤー 1"><path class="cls-1" d="M74.06,16.65h2.81a14.46,14.46,0,0,0,2-.11v2.15a20.06,20.06,0,0,0-2.05-.1H74.72a12.42,12.42,0,0,0,4.73,4.73,5.08,5.08,0,0,0-1.33,2,12.3,12.3,0,0,1-2.12-2,13.7,13.7,0,0,1-2-2.9c.06.64.08,1.33.08,1.88v2.39a18.82,18.82,0,0,0,.11,2.21H72a19.7,19.7,0,0,0,.11-2.21V22.41c0-.53,0-1.22.08-2a13.64,13.64,0,0,1-4.5,4.92,8.46,8.46,0,0,0-1.18-1.8,12.48,12.48,0,0,0,4.84-5H70.07a15.51,15.51,0,0,0-2.07.12v-.78a6.06,6.06,0,0,0-.82,1.59A11.12,11.12,0,0,1,66,17.15c0,.63.08,1.67.08,2.51v4.86a20.31,20.31,0,0,0,.11,2.34H64a18.67,18.67,0,0,0,.11-2.34V20.44A21,21,0,0,1,64.26,18a14.81,14.81,0,0,1-2,4.49,7,7,0,0,0-.87-2.11,17.31,17.31,0,0,0,2.54-5.74h-.76a5.45,5.45,0,0,0-1.27.1V12.67a5.89,5.89,0,0,0,1.27.09h1V11.22a11.22,11.22,0,0,0-.11-2h2.18a18.15,18.15,0,0,0-.09,2v1.54h.57a4.84,4.84,0,0,0,1-.08v1.89A12.34,12.34,0,0,0,69.14,10l1.94.49a8.57,8.57,0,0,0-.29,1c-.11.44-.15.57-.25.93h1.54V11.09A12.28,12.28,0,0,0,72,9.28h2.2a12.09,12.09,0,0,0-.11,1.81V12.4H76.3a15,15,0,0,0,2-.11v2.09a13.89,13.89,0,0,0-2-.12H74.06Zm-4.14-2.39a12,12,0,0,1-1.07,2.11,6.91,6.91,0,0,0-1.55-1.23c.17-.23.22-.31.32-.46a6.51,6.51,0,0,0-.93-.06h-.48a12.65,12.65,0,0,0,1.79,3V16.54a14.8,14.8,0,0,0,2.07.11h2V14.26Z"/><path class="cls-1" d="M95.91,12.57a9.6,9.6,0,0,0,1.84-.11v2.12a17.82,17.82,0,0,0-2.22-.11H92.75a21.81,21.81,0,0,0,1.33,7.31,6.38,6.38,0,0,0,1.14,1.88,1.28,1.28,0,0,0,.44.35c.23,0,.46-.91.7-2.89a8.48,8.48,0,0,0,1.81,1.06,8.87,8.87,0,0,1-1.08,3.57,1.62,1.62,0,0,1-1.31.8,3.9,3.9,0,0,1-2.53-1.84A13.84,13.84,0,0,1,91.14,19a30.21,30.21,0,0,1-.46-4.52H83.09a21.75,21.75,0,0,0-2.23.11V12.46a18.82,18.82,0,0,0,2.23.11h7.52c-.06-1-.06-1-.06-1.56a12.3,12.3,0,0,0-.11-1.48h2.3a12.47,12.47,0,0,0-.08,1.54c0,.32,0,.87,0,1.5h2.24a11.79,11.79,0,0,0-1.8-2.24l1.65-.78a16.69,16.69,0,0,1,1.88,2.15l-1.54.87ZM83.47,18.65c-.73,0-1.39,0-1.92.09v-2a15.93,15.93,0,0,0,2,.1h4.6a15.38,15.38,0,0,0,1.92-.1v2c-.55,0-1.18-.09-1.9-.09H86.81V23c1.33-.26,2.07-.42,3.89-.87V24c-3.21.78-6.21,1.38-8.75,1.76l-.71.14-.34-2.15a27.69,27.69,0,0,0,3.82-.44V18.65Z"/><path class="cls-1" d="M103.47,15.5a18,18,0,0,1-3,1.63,8.61,8.61,0,0,0-1.1-1.94,17.54,17.54,0,0,0,4.77-2.64,12.53,12.53,0,0,0,3-3.19h2.26a11.47,11.47,0,0,0,3.21,3.15,20.45,20.45,0,0,0,4.88,2.57,8.69,8.69,0,0,0-1,2.13,21.24,21.24,0,0,1-3.25-1.73V17a13.7,13.7,0,0,0-1.71-.08h-6.34a14.53,14.53,0,0,0-1.64.08Zm-1,4.9a19,19,0,0,0-2.24.11v-2.2a19.89,19.89,0,0,0,2.24.11h11.83a19.44,19.44,0,0,0,2.23-.11v2.2a19.19,19.19,0,0,0-2.23-.11h-6.53a20.86,20.86,0,0,1-2,3.68c3.36-.19,3.36-.19,6-.47-.6-.67-.93-1-2-2.11l1.88-.84a39.18,39.18,0,0,1,4.39,5.08l-1.83,1.19c-.62-.93-.81-1.19-1.14-1.65-1.57.21-2.71.34-3.41.42l-6.41.57a22.9,22.9,0,0,0-2.45.26l-.3-2.31c.51,0,.83.05,1.1.05l1.67-.07a19.71,19.71,0,0,0,2-3.8Zm9-5.49c.31,0,.48,0,.84,0a15.52,15.52,0,0,1-4-3.69,16.48,16.48,0,0,1-4,3.69c.32,0,.43,0,.77,0Z"/><path class="cls-1" d="M123.48,24.88a14.63,14.63,0,0,0,.09,1.94h-2.29a12,12,0,0,0,.11-2V20.07a12.58,12.58,0,0,1-2.11,1.62,7.45,7.45,0,0,0-1-2,13.24,13.24,0,0,0,3.27-2.56,11.37,11.37,0,0,0,2.07-2.93h-3.1a12.28,12.28,0,0,0-1.59.08V12.19a10.94,10.94,0,0,0,1.5.08h1v-1.6a8.23,8.23,0,0,0-.12-1.44h2.3a8.61,8.61,0,0,0-.11,1.48v1.56h.78a6.57,6.57,0,0,0,1.1-.06l.91,1a5.47,5.47,0,0,0-.42.8,15,15,0,0,1-1.9,3.24,11.29,11.29,0,0,0,3,2.42,8,8,0,0,0-1,1.86,10.55,10.55,0,0,1-2.45-2.15Zm8-.89h2.28a15.57,15.57,0,0,0,2.17-.12v2.3a16.55,16.55,0,0,0-2.17-.13h-6.49a16.13,16.13,0,0,0-2.15.13v-2.3a16.34,16.34,0,0,0,2.18.12h2.08V16.56H128c-.65,0-1.25,0-1.86.09V14.51a13.79,13.79,0,0,0,1.86.09h1.43V11.26a12.91,12.91,0,0,0-.14-2h2.38a10.62,10.62,0,0,0-.14,2V14.6h2a13.33,13.33,0,0,0,1.86-.09v2.14c-.61,0-1.2-.09-1.86-.09h-2Z"/><path class="cls-1" d="M64.86,31.3H79.19a2.43,2.43,0,0,1,2.73,2.76V50.31A2.41,2.41,0,0,1,79.19,53H64.86a2.42,2.42,0,0,1-2.75-2.73V34.06A2.44,2.44,0,0,1,64.86,31.3ZM66,40.14H78.07V36A1,1,0,0,0,77,34.86H67.1A1,1,0,0,0,66,36ZM77,49.4a1,1,0,0,0,1.12-1.12V43.7H66v4.58A1,1,0,0,0,67.1,49.4Z"/><path class="cls-1" d="M87.82,33.43h8V31.82a1.86,1.86,0,0,1,.6-1.48,1.78,1.78,0,0,1,1.45-.55,2,2,0,0,1,1.46.55,1.91,1.91,0,0,1,.57,1.48v1.61h7.83a2,2,0,0,1,1.43.42,2,2,0,0,1,.39,1.43,2,2,0,0,1-.34,1.25,1.85,1.85,0,0,1-1.48.57h-4.06A37.05,37.05,0,0,0,106,43a22.57,22.57,0,0,0,3.56,4.7,1.64,1.64,0,0,1,.6,1.33,1.41,1.41,0,0,1-.5,1,1.94,1.94,0,0,1-1.64.7,2,2,0,0,1-1.4-.52A19.22,19.22,0,0,1,102.41,44a33.79,33.79,0,0,1-2.06-5.8c0-.34-.1-.7-.15-1.06h-.29v9h2a1.89,1.89,0,0,1,1.27.36q.45.29.45,1.35a2.35,2.35,0,0,1-.26,1.28,1.79,1.79,0,0,1-1.46.54h-2V52a2.16,2.16,0,0,1-.39,1.33,2.22,2.22,0,0,1-3.22,0A2,2,0,0,1,95.83,52V49.68H93.59a1.75,1.75,0,0,1-1.22-.41,1.67,1.67,0,0,1-.49-1.41,1.7,1.7,0,0,1,.49-1.4,1.81,1.81,0,0,1,1.22-.31h2.24v-9h-.21a37.85,37.85,0,0,1-2.23,6.37,27.48,27.48,0,0,1-4.06,6.63,2.18,2.18,0,0,1-1.72.7,2.43,2.43,0,0,1-1.43-.57,1.5,1.5,0,0,1-.59-1.15A1.74,1.74,0,0,1,86,47.86a27.47,27.47,0,0,0,3.64-5.25,34,34,0,0,0,2.1-5.51h-3.9a2.09,2.09,0,0,1-1.4-.42,1.79,1.79,0,0,1-.44-1.4,1.78,1.78,0,0,1,.44-1.43A2,2,0,0,1,87.82,33.43Z"/><path class="cls-1" d="M114.42,29.9a1.89,1.89,0,0,1,1.07.31,1,1,0,0,1,.46,1,.36.36,0,0,1,0,.1h2a1.57,1.57,0,0,1,.47-1,1.53,1.53,0,0,1,1.22-.44,1.66,1.66,0,0,1,1.25.44,1.52,1.52,0,0,1,.47,1h3a1.24,1.24,0,0,1,1,.29,1.31,1.31,0,0,1,.26.93,1.66,1.66,0,0,1-.21,1,1.21,1.21,0,0,1-1,.37h-2.93v.8h3.35a1.31,1.31,0,0,1,.94.29,1.2,1.2,0,0,1,.28.94,1.27,1.27,0,0,1-.23.83,1.2,1.2,0,0,1-1,.39h-3.35V38H124c1.63,0,2.45.67,2.45,2v.83a2.51,2.51,0,0,1-.47,1.66,1.59,1.59,0,0,1,.47,1.17v.11h7.82a1.52,1.52,0,0,1,1,.28,1.42,1.42,0,0,1,.29,1,1.15,1.15,0,0,1-1.33,1.3h-.31a1.49,1.49,0,0,1,.31,1,1.07,1.07,0,0,1-.41.81,13.53,13.53,0,0,1-2.37,1.38c.9.38,1.9.76,3,1.14a1.73,1.73,0,0,1,.21,2.6,1.43,1.43,0,0,1-1.22.47,7.16,7.16,0,0,1-2.53-.63,21.34,21.34,0,0,1-6.05-3.92,10.47,10.47,0,0,1-1.46-1.61c-.56.26-1.17.51-1.85.75v2c1.13-.09,2.25-.18,3.36-.29a1.2,1.2,0,0,1,.86.39,1.61,1.61,0,0,1,.26.94,1.45,1.45,0,0,1-.34,1,1.48,1.48,0,0,1-.89.44,66,66,0,0,1-9.25.91,1.31,1.31,0,0,1-1.09-.39,1.81,1.81,0,0,1-.34-1.15,1.44,1.44,0,0,1,.39-1.11,1.38,1.38,0,0,1,.93-.32l2.45-.15V49.58c-1.27.34-2.52.62-3.77.83a2.38,2.38,0,0,1-1,.21c-.33,0-.65-.24-1-.7a2.17,2.17,0,0,1-.26-1,1,1,0,0,1,.63-.91,38.8,38.8,0,0,0,5.9-1.41,2.6,2.6,0,0,0,.36-.13h-5.35a1.48,1.48,0,0,1-1-.28,1.73,1.73,0,0,1,0-2.06,1.38,1.38,0,0,1,1-.28h9.15V43.7a1.93,1.93,0,0,1,0-.47h0a.68.68,0,0,1-.52-.31,1.14,1.14,0,0,1-.21-.65,2.19,2.19,0,0,1,0-.36.73.73,0,0,1,.2-.34.77.77,0,0,1,.26-.1h.24c.19,0,.28,0,.28-.11v-.91c0-.07-.09-.1-.28-.1h-1.22v1.12a1.79,1.79,0,0,1-.34,1.11,1.6,1.6,0,0,1-1.41.6,1.52,1.52,0,0,1-1.32-.6,1.6,1.6,0,0,1-.39-1.11V40.35h-1.54q-.18,0-.18.21v1c-.07,1-.68,1.46-1.84,1.53s-1.67-.58-1.72-1.53v-2c0-1,.74-1.53,2.24-1.53h3V37.1h-5a1.33,1.33,0,0,1-.93-.29,1.18,1.18,0,0,1-.29-.93,1.26,1.26,0,0,1,.29-1,1.19,1.19,0,0,1,.26-.15A1.13,1.13,0,0,1,112,34a1.15,1.15,0,0,1,.2-.57,12.56,12.56,0,0,0,1.12-2.68A1,1,0,0,1,114.42,29.9Zm3.46,4.75v-.8H115.1a6.48,6.48,0,0,1-.42.8Zm8.24,11.78a7.85,7.85,0,0,0,1.61,1.35,11.24,11.24,0,0,0,1.07.63,16,16,0,0,0,3.07-2Zm2-15.52a1.72,1.72,0,0,1,1.17.39,1.42,1.42,0,0,1,.44,1.12v4.37a1.46,1.46,0,0,1-1.61,1.53,1.44,1.44,0,0,1-1.2-.52,1.58,1.58,0,0,1-.34-1V32.42a1.4,1.4,0,0,1,.45-1.12A1.35,1.35,0,0,1,128.15,30.91Zm4.86-.83q1.69,0,1.74,1.32V40a2.36,2.36,0,0,1-.86,2,3.64,3.64,0,0,1-2.6.91,6.71,6.71,0,0,1-2.13-.32,1.7,1.7,0,0,1-1.22-1.82c0-.9.41-1.37,1.22-1.43h.31a7,7,0,0,0,1.2.11.55.55,0,0,0,.62-.63V31.4C131.33,30.55,131.9,30.11,133,30.08Z"/><path class="cls-1" d="M143.57,30.18a2.65,2.65,0,0,1,1.61.47c.48.17.73.63.73,1.38a3.49,3.49,0,0,1-.16,1,27.08,27.08,0,0,1-1,3.17V51.84a1.67,1.67,0,0,1-.5,1.38,1.75,1.75,0,0,1-1.32.44,1.67,1.67,0,0,1-1.3-.44,1.61,1.61,0,0,1-.52-1.38V43a1.9,1.9,0,0,1-.94.21,2.24,2.24,0,0,1-1.64-.57,1.6,1.6,0,0,1-.59-1.35,2.25,2.25,0,0,1,.36-1.09,30.65,30.65,0,0,0,4-8.87C142.55,30.55,143,30.18,143.57,30.18Zm6.7-.28a2.62,2.62,0,0,1,1.54.41c.47.17.7.61.7,1.3a2.57,2.57,0,0,1-.16.91c-.07.31-.14.62-.23.91H160a1.6,1.6,0,0,1,1.28.39,2,2,0,0,1,.36,1.35,2.14,2.14,0,0,1-.28,1.25,1.69,1.69,0,0,1-1.36.47h-6.7v2.76h6.42a1.59,1.59,0,0,1,1.17.31,1.67,1.67,0,0,1,.34,1.19,2.13,2.13,0,0,1-.26,1.2,1.53,1.53,0,0,1-1.25.44h-6.42v2.52h6.42a1.54,1.54,0,0,1,1.17.34,1.72,1.72,0,0,1,.34,1.2A2.19,2.19,0,0,1,161,48a1.53,1.53,0,0,1-1.25.45h-6.42v3.35a1.67,1.67,0,0,1-.5,1.38,2.17,2.17,0,0,1-2.62,0,1.61,1.61,0,0,1-.52-1.38V39.2c-.35.59-.72,1.17-1.12,1.75a1.37,1.37,0,0,1-1.22.52,2.05,2.05,0,0,1-1.56-.55,1.54,1.54,0,0,1-.58-1.27,2,2,0,0,1,.32-1A26.28,26.28,0,0,0,149.05,31C149.26,30.27,149.67,29.9,150.27,29.9Z"/><path class="cls-1" d="M173,35.88c1.42,0,2.14.6,2.14,1.82v5.59q0,2.13-2.34,2.13h-4c0,.71-.07,1.36-.1,1.95a20.89,20.89,0,0,1-1.53,5.28,1.74,1.74,0,0,1-1.82,1.11,1.77,1.77,0,0,1-1.28-.41,1.63,1.63,0,0,1-.44-1.33,3.26,3.26,0,0,1,.29-1,28.23,28.23,0,0,0,1.24-4.81c.12-1.71.19-4.45.19-8.21,0-1.42.74-2.13,2.23-2.13Zm-7.09-4.68h8.63a1.55,1.55,0,0,1,1.12.36c.26.17.39.6.39,1.27a1.91,1.91,0,0,1-.24,1.12,1.52,1.52,0,0,1-1.27.5h-8.63a1.57,1.57,0,0,1-1.1-.37,1.5,1.5,0,0,1-.44-1.25,1.65,1.65,0,0,1,.44-1.32A1.54,1.54,0,0,1,165.93,31.2Zm3,11h2.86c.14,0,.21,0,.21-.11V39.23c0-.07-.07-.1-.21-.1h-2.52a.27.27,0,0,0-.31.31Q169,40.89,168.94,42.17Zm16.88-12a1.23,1.23,0,0,1,1.09.5,1.58,1.58,0,0,1,.54,1.35,1.77,1.77,0,0,1-1.22,1.82,19.62,19.62,0,0,1-6.08,1.71.86.86,0,0,0-.83.94v2.13H186a1.64,1.64,0,0,1,1.28.37,2,2,0,0,1,.36,1.35,2.16,2.16,0,0,1-.28,1.25,1.69,1.69,0,0,1-1.36.46h-.39v9.78a1.51,1.51,0,0,1-.46,1.27,1.88,1.88,0,0,1-1.38.45,1.72,1.72,0,0,1-1.28-.45,1.63,1.63,0,0,1-.44-1.27V42.06h-2.75v.84a29,29,0,0,1-1.3,9.54,2.2,2.2,0,0,1-2.14,1.12,1.6,1.6,0,0,1-1.11-.63,2.35,2.35,0,0,1-.42-1.3,2.85,2.85,0,0,1,.34-1.06,21.33,21.33,0,0,0,1.38-7.67V35.38c0-1.47.35-2.42,1.06-2.86a3.36,3.36,0,0,1,2-.6,24.9,24.9,0,0,0,6.22-1.61A1.15,1.15,0,0,1,185.82,30.18Z"/><path class="cls-2" d="M41.1,32.26H38.53a18,18,0,0,0-3-7.11l1.79-1.79a.93.93,0,0,0,0-1.31l-3.12-3.12a.93.93,0,0,0-1.31,0L31,20.77a18,18,0,0,0-7-2.85V15.3a.93.93,0,0,0-.93-.92H18.7a.93.93,0,0,0-.94.92v2.62a17.83,17.83,0,0,0-7,2.88L9,19a.93.93,0,0,0-1.31,0L4.52,22.13a1,1,0,0,0-.27.66.91.91,0,0,0,.27.65L6.28,25.2a18,18,0,0,0-3,7.06H.93a.93.93,0,0,0-.93.92V37.6a.93.93,0,0,0,.93.92H3.19a18,18,0,0,0,2.89,7.17L4.44,47.33a.94.94,0,0,0,0,1.32l3.12,3.12a.93.93,0,0,0,1.31,0l1.6-1.59a17.85,17.85,0,0,0,7.29,3.07v2.23a.94.94,0,0,0,.94.93h4.41a.93.93,0,0,0,.93-.93V53.25a17.94,17.94,0,0,0,7.25-3l1.64,1.64a1,1,0,0,0,1.31,0l3.12-3.12a.91.91,0,0,0,0-1.31l-1.68-1.68a18,18,0,0,0,2.93-7.22H41.1A.92.92,0,0,0,42,37.6V33.18A.92.92,0,0,0,41.1,32.26ZM21,45.19a9.8,9.8,0,1,1,9.79-9.8A9.8,9.8,0,0,1,21,45.19Zm3.71-9.8A3.72,3.72,0,1,1,21,31.67,3.72,3.72,0,0,1,24.73,35.39ZM55.3,14.57,54.06,14a10.28,10.28,0,0,0,0-4.45l1.32-.53a.53.53,0,0,0,.3-.69L54.78,6a.53.53,0,0,0-.69-.3l-1.37.55a10.1,10.1,0,0,0-3.11-3.13l.57-1.33a.53.53,0,0,0,0-.41.52.52,0,0,0-.29-.29l-2.31-1a.54.54,0,0,0-.7.28L46.3,1.77A10.22,10.22,0,0,0,42,1.72L41.45.34a.53.53,0,0,0-.69-.3L38.41,1a.53.53,0,0,0-.29.69l.55,1.39a10.18,10.18,0,0,0-3.12,3l-1.33-.57a.53.53,0,0,0-.7.28l-1,2.31a.53.53,0,0,0,0,.41.55.55,0,0,0,.29.29l1.3.56A10.27,10.27,0,0,0,34,13.72l-1.24.5a.53.53,0,0,0-.3.69l.93,2.34a.53.53,0,0,0,.69.3l1.21-.48a10.06,10.06,0,0,0,3,3.19l-.52,1.23a.52.52,0,0,0,.28.69l2.31,1a.52.52,0,0,0,.7-.28l.51-1.18a10.15,10.15,0,0,0,4.52.09L46.6,23a.53.53,0,0,0,.69.3l2.35-.93a.53.53,0,0,0,.29-.69l-.47-1.18a10.27,10.27,0,0,0,3.21-3.15l1.22.52a.54.54,0,0,0,.7-.27l1-2.32A.53.53,0,0,0,55.3,14.57Zm-9.15,2.27a5.6,5.6,0,1,1,3.14-7.27A5.59,5.59,0,0,1,46.15,16.84Zm-.09-6A2.12,2.12,0,1,1,43.3,9.67,2.12,2.12,0,0,1,46.06,10.85Z"/></g></g></svg>