<svg xmlns="http://www.w3.org/2000/svg" viewBox="0 0 50 50"><defs><style>.cls-1{fill:#38929a;}.cls-2{fill:#fff;}</style></defs><title>tel1</title><g id="レイヤー_2" data-name="レイヤー 2"><g id="レイヤー_1-2" data-name="レイヤー 1"><circle class="cls-1" cx="25" cy="25" r="25"/><path class="cls-2" d="M19.41,9.93a2.28,2.28,0,0,1,1.36,1.82c.36,1.58.7,3.16,1,4.75a3.64,3.64,0,0,1,.07.74,1.47,1.47,0,0,1-1.06,1.53c-.5.18-1,.35-1.52.51a1.25,1.25,0,0,0-.88,1,3.33,3.33,0,0,0,.08,1.9,20.37,20.37,0,0,0,6.18,9,14.88,14.88,0,0,0,1.9,1.31,2.37,2.37,0,0,0,1.42.25,1.15,1.15,0,0,0,.85-.5L29.7,31a1.58,1.58,0,0,1,2.17-.64,14.47,14.47,0,0,1,1.46.76c.91.49,1.82,1,2.72,1.5.24.13.46.27.69.41a2.27,2.27,0,0,1,1.16,1.68l-.09.6c-.2.46-.37.93-.61,1.37a6.41,6.41,0,0,1-4.89,3.43c-.44.06-.89,0-1.34.06l-1-.15c-.41-.13-.83-.24-1.23-.39a16.42,16.42,0,0,1-5.34-3.38,38.16,38.16,0,0,1-5.11-5.66,38.29,38.29,0,0,1-4.82-8,15.52,15.52,0,0,1-1.34-5c0-.51,0-1,0-1.54l.15-1a2.18,2.18,0,0,0,.09-.23,6.33,6.33,0,0,1,4.84-4.72,15.25,15.25,0,0,1,1.67-.23Z"/></g></g></svg>