<svg xmlns="http://www.w3.org/2000/svg" xmlns:xlink="http://www.w3.org/1999/xlink" width="197.62" height="78.04" viewBox="0 0 197.62 78.04"><defs><style>.cls-1,.cls-5,.cls-6{fill:none;}.cls-2{fill:#231f20;}.cls-3{fill:#facac5;}.cls-4{clip-path:url(#clip-path);}.cls-5{stroke:#f499a2;stroke-width:1.64px;}.cls-5,.cls-6{stroke-miterlimit:10;}.cls-6{stroke:#231f20;stroke-width:2.83px;}</style><clipPath id="clip-path"><path class="cls-1" d="M25.48,64.66a7.3,7.3,0,0,0,.12-1.58q.79-7,3.58-9.78L35.5,47a11.08,11.08,0,0,0,3.43-7.68,9.62,9.62,0,0,0-2.88-7.44A9.49,9.49,0,0,0,28.64,29,11.18,11.18,0,0,0,21,32.47l-6.32,6.32A8.15,8.15,0,0,1,13.18,40a11.55,11.55,0,0,1-1.49.82,9.27,9.27,0,0,1-1.85.58c-.79.18-1.32.29-1.61.33L6.47,42c-.89.12-1.38.18-1.46.18-.81.16-1.39.26-1.76.3.12.13.27.27.43.43L25.3,64.48Z"/></clipPath></defs><title>wedding_bell</title><g id="レイヤー_2" data-name="レイヤー 2"><g id="レイヤー_1-2" data-name="レイヤー 1"><path class="cls-2" d="M28.45,64.72c0,.28-.11.66-.21,1.12a3.68,3.68,0,0,1-.33,1,3.45,3.45,0,0,1-.52.63,2.19,2.19,0,0,1-.76.52c-1,.32-2.1-.16-3.4-1.46l-5.71-5.71A7,7,0,0,1,12.36,63,7.08,7.08,0,0,1,7.17,60.8a7.32,7.32,0,0,1,0-10.35L1.61,44.92C.28,43.59-.23,42.39.09,41.34a2,2,0,0,1,.46-.7,4,4,0,0,1,.67-.54,3.37,3.37,0,0,1,1-.4,9.84,9.84,0,0,1,1.09-.24l1.28-.18a11.4,11.4,0,0,1,1.55-.22c.91-.1,1.55-.19,1.91-.27s.88-.21,1.55-.4a7.26,7.26,0,0,0,1.73-.69,6,6,0,0,0,1.27-1l6.32-6.31a14,14,0,0,1,9.72-4.31,12.29,12.29,0,0,1,9.47,3.7,12.44,12.44,0,0,1,3.74,9.51,13.9,13.9,0,0,1-4.29,9.74l-6.31,6.32q-2.07,2.07-2.67,8C28.54,64,28.5,64.44,28.45,64.72Zm-13-5.95L9.2,52.51a4.34,4.34,0,0,0-1.33,3.16,4.26,4.26,0,0,0,1.3,3.13,4.4,4.4,0,0,0,6.29,0Z"/><path class="cls-3" d="M25.48,64.66a7.3,7.3,0,0,0,.12-1.58q.79-7,3.58-9.78L35.5,47a11.08,11.08,0,0,0,3.43-7.68,9.62,9.62,0,0,0-2.88-7.44A9.49,9.49,0,0,0,28.64,29,11.18,11.18,0,0,0,21,32.47l-6.32,6.32A8.15,8.15,0,0,1,13.18,40a11.55,11.55,0,0,1-1.49.82,9.27,9.27,0,0,1-1.85.58c-.79.18-1.32.29-1.61.33L6.47,42c-.89.12-1.38.18-1.46.18-.81.16-1.39.26-1.76.3.12.13.27.27.43.43L25.3,64.48Z"/><g class="cls-4"><line class="cls-5" x1="4.68" y1="0.58" x2="40.65" y2="36.56"/><line class="cls-5" x1="4.68" y1="6.42" x2="40.65" y2="42.4"/><line class="cls-5" x1="4.68" y1="12.27" x2="40.65" y2="48.24"/><line class="cls-5" x1="4.68" y1="18.11" x2="40.65" y2="54.09"/><line class="cls-5" x1="4.68" y1="23.95" x2="40.65" y2="59.93"/><line class="cls-5" x1="4.68" y1="29.79" x2="40.65" y2="65.77"/><line class="cls-5" x1="4.68" y1="35.63" x2="40.65" y2="71.61"/><line class="cls-5" x1="4.68" y1="41.48" x2="40.65" y2="77.45"/></g><path class="cls-6" d="M37.1,26.76s-4.77-8.66-10-8.66-4.56,9.6,9.29,9.6h.24c13.86,0,14.57-9.6,9.29-9.6s-10,8.66-10,8.66"/><path class="cls-2" d="M69.6,39.58c.28,0,.65.11,1.12.21a3.15,3.15,0,0,1,1,.34,3.39,3.39,0,0,1,.64.51,2.63,2.63,0,0,1,.52.76c.32,1-.17,2.11-1.46,3.4l-5.71,5.71A7.34,7.34,0,0,1,55.33,60.9L49.8,66.42c-1.34,1.34-2.53,1.84-3.58,1.52a1.67,1.67,0,0,1-.7-.46,4,4,0,0,1-.55-.66,3.93,3.93,0,0,1-.39-1,9.75,9.75,0,0,1-.25-1.09l-.18-1.27a15.5,15.5,0,0,1-.21-1.55q-.15-1.36-.27-1.92c-.08-.36-.22-.88-.4-1.54a6.94,6.94,0,0,0-.7-1.74,5.92,5.92,0,0,0-1-1.27l-6.31-6.32A13.94,13.94,0,0,1,31,39.4,12.73,12.73,0,0,1,44.18,26.19a13.89,13.89,0,0,1,9.75,4.28l6.31,6.32q2.07,2.05,8,2.67C68.87,39.5,69.31,39.54,69.6,39.58Zm-6,13-6.25,6.26a4.4,4.4,0,0,0,6.29,0A4.26,4.26,0,0,0,65,55.73,4.31,4.31,0,0,0,63.64,52.57Z"/><path class="cls-3" d="M69.54,42.56A6.63,6.63,0,0,0,68,42.43q-7-.78-9.78-3.58l-6.32-6.32a11.13,11.13,0,0,0-7.68-3.43A9.62,9.62,0,0,0,36.74,32a9.49,9.49,0,0,0-2.85,7.41,11.17,11.17,0,0,0,3.46,7.65l6.32,6.32a8.52,8.52,0,0,1,1.18,1.48,13.79,13.79,0,0,1,.82,1.49,11.11,11.11,0,0,1,.58,1.85c.18.79.29,1.33.33,1.61s.12.87.24,1.76S47,62.94,47,63c.16.81.26,1.4.3,1.76l.42-.42L69.35,42.74Z"/><path d="M86.66,36.91c-2.28,2.45-3.54,3.51-4.53,3.51s-2-1.89-1.89-2.62-.41-.74,6.33-8.14c.24-.28.67-.67.67-1.06s-.39-.54-.76-.54c-1.23,0-5.24,1.76-6.39,2.45a3.17,3.17,0,0,1-1.45.52c-.24,0-1-.3.1-2.82A3.46,3.46,0,0,1,80,26.82l1.5-1.17a.75.75,0,0,1,.48-.23c.08,0,.26.08,0,.43l-.61.69,0,.05A17.07,17.07,0,0,1,87,25.18a2,2,0,0,1,1.73.58A4.87,4.87,0,0,1,89.43,28c0,.72-.15,1.78-6,8.54-.48.57-.22.74,0,.81s3.92-3.06,9.1-8.94c.48-.52,1.37-2,2.47-2,.61,0,1,1.06,1,1.41a4.42,4.42,0,0,1-.74,1.34c-.93,1.3-4.83,7.13-4.81,8.44,0,.19.15.39.3.32,1.89-.89,5.2-4.12,7.16-8.35a2.38,2.38,0,0,1-.11-.8,3.74,3.74,0,0,1,1.62-2.23c.44,0,.59.84.57,1.15-.2,4.79-6.4,12.33-9.09,12.72a2.49,2.49,0,0,1-2.36-2.14,16.24,16.24,0,0,1,1.26-4.53l0,0Z"/><path d="M106.25,36.82c-1.32,1.54-3.7,3.58-5.85,3.58-1.58,0-2.32-1.41-2.36-2.84-.09-2.84,3-5.75,5.87-5.73.7,0,1.56.18,1.56,1,0,1.07-1.06,2.67-5.22,4l0,.47c-.06.83.65,1.11,1.35,1.11,1.54,0,3.36-1.58,4.51-2.49Zm-2.69-3.49c0-.15-.1-.28-.26-.24a4.74,4.74,0,0,0-2.92,2.75C102.29,35.19,103.59,33.7,103.56,33.33Z"/><path d="M114.62,33.35c-.72,1.13-1.76,2.54-1.76,3.93,0,.34,0,1.08.5,1.08.74,0,2.73-1.76,3.43-2.21l.15.71c-1,1.13-3.25,3.41-4.84,3.41-.82,0-1.14-.87-1.14-1.56a10.15,10.15,0,0,1,.17-1.65c-.76.65-2.78,2.75-3.75,2.75S105.8,37.73,105.8,37c0-2.56,4.31-4.72,6.15-4.83.46,0,.63.28.91.6.72-1.23,2.63-5.72,4.21-5.72a.77.77,0,0,1,.69.82,4.82,4.82,0,0,1-.93,2.08Zm-6.92,4.08a.37.37,0,0,0,.33.41c.26.06,3.75-2.54,4.1-3.82C108.31,35.26,107.83,36,107.7,37.43Z"/><path d="M125.48,33.35c-.72,1.13-1.76,2.54-1.76,3.93,0,.34,0,1.08.5,1.08.74,0,2.73-1.76,3.43-2.21l.15.71c-1,1.13-3.25,3.41-4.84,3.41-.82,0-1.14-.87-1.14-1.56a10.15,10.15,0,0,1,.17-1.65c-.76.65-2.78,2.75-3.75,2.75s-1.58-2.08-1.58-2.84c0-2.56,4.31-4.72,6.15-4.83.46,0,.63.28.91.6.72-1.23,2.63-5.72,4.21-5.72a.77.77,0,0,1,.69.82,4.82,4.82,0,0,1-.93,2.08Zm-6.92,4.08a.37.37,0,0,0,.33.41c.26.06,3.75-2.54,4.1-3.82C119.17,35.26,118.69,36,118.56,37.43Z"/><path d="M133.78,37.23c-1,1.19-2.88,3.15-4.53,3.15-1.28,0-1.86-1.48-1.86-2.58,0-2.65,2.71-5.23,4-5.23.36,0,.95.13.95.61,0,1.08-2.15,3-3.06,3.64-.17.89.15,1.37,1.15,1.37,1.15,0,2.28-1.15,3.15-1.78Zm-2.08-6a2,2,0,0,1,1.89-1.67.69.69,0,0,1,.71.68,2,2,0,0,1-1.73,1.93A.88.88,0,0,1,131.7,31.2Z"/><path d="M143.84,35.76l.17,1c-1.14,1-3.38,3.69-5,3.69A1.27,1.27,0,0,1,137.83,39c0-1.3,1.18-2.74,1.87-3.73l0-.05a17.22,17.22,0,0,0-3.34,3.32c-.33.41-1.13,1.48-1.72,1.48-.95,0-1.19-1.37-1.21-2.11-.07-1.49,1.3-3.68,2.56-4.75a1.1,1.1,0,0,1,.84-.26c1.3.05,1.2.35,1.2.48,0,.85-2.74,3-2.74,3.56a.24.24,0,0,0,.24.24c.15,0,.35-.2.44-.31,1.73-2.21,5.72-4.88,6.35-4.88.09,0,.22.11.35.42a4.69,4.69,0,0,1,.32,1.17c0,.84-2.67,2.49-2.67,4a.41.41,0,0,0,.4.39,4.48,4.48,0,0,0,1.86-1.09Z"/><path d="M149.45,36.91l0,0c-.78.87-3.06,2.84-4.25,2.84s-1.63-1.58-1.63-2.53c0-2.84,4.73-5.14,6.4-5.29.3,0,1.15.06,1.15.54s-.43.69-.72.89l-2.47,1.34c-1.36.74-3,1.35-2.77,2.93,0,.17.15.22.34.22a4.21,4.21,0,0,0,2.76-1.35l2.32-2.56c.21-.24.47-.6.82-.6s.83.73.83,1.1a3.08,3.08,0,0,1-.46,1.11l-1.63,3,.05,0,3.29-2.37.11.91L149,40.55c-2.28,3.62-4.19,5-5,5a.49.49,0,0,1-.5-.52c0-1.56,3.29-4.3,4.49-5.16Z"/><path d="M175,35.8c0,1.24-2.67,4.16-8.5,4.49-1.56.09-3.73-.43-3.73-2.41,0-.69-.11-.8,2.41-4.12-.61,0-2-.11-2-.84,0-.94,3-1,3.69-1.17,1.41-1.37,2.84-3.19,5-3.19-.15.37-.31.65-2.11,2.75,4.9-.67,6-2.14,6-2.73s-.63-1.24-3.14-1.06a25.72,25.72,0,0,0-6.1,1.52c.13.06.31.15.31.32,0,.33-.5.46-.78.5a15.81,15.81,0,0,0-3,.82,2,2,0,0,1-.67.16c-.37,0-.54-.22-.54-.59a5.31,5.31,0,0,1,1-1.82,4.82,4.82,0,0,1,1.82-1.71A29.81,29.81,0,0,1,173,25.07c3.73,0,4.62,1.47,4.62,2.64,0,3.52-6.57,4.4-9.11,4.9l-.43.39C169.66,33.29,175,33.72,175,35.8Zm-9-.39c-.28.3-.76.78-.76,1.24,0,.93,1.71,1.19,2.41,1.19,1.93,0,4.92-1.43,4.92-2.3,0-1.13-4.47-1.45-5.36-1.45Z"/><path d="M184.07,36.82c-1.32,1.54-3.71,3.58-5.85,3.58-1.59,0-2.32-1.41-2.37-2.84-.08-2.84,3.06-5.75,5.88-5.73.69,0,1.56.18,1.56,1,0,1.07-1.06,2.67-5.22,4l0,.47c-.06.83.65,1.11,1.35,1.11,1.54,0,3.36-1.58,4.51-2.49Zm-2.69-3.49c0-.15-.11-.28-.26-.24a4.74,4.74,0,0,0-2.92,2.75C180.1,35.19,181.4,33.7,181.38,33.33Z"/><path d="M190.66,36.84c-1.19,1.24-3.23,3.43-5.09,3.43-1.59,0-1.93-1.54-1.93-2.82A10.72,10.72,0,0,1,186,31c1.91-2.37,4-4.38,4.66-4.38.37,0,.46.52.44.8-.16,2.06-.72,4-5.42,8.52a2.39,2.39,0,0,0-.16,1.5c.2.5.5.93,1.09.93,1.19,0,2.86-1.39,3.73-2.17Zm-4.49-2.9a13.35,13.35,0,0,0,3.28-4.75c-1.07.52-2.3,2.47-3.32,4.7Z"/><path d="M197.16,36.84c-1.19,1.24-3.23,3.43-5.09,3.43-1.58,0-1.93-1.54-1.93-2.82A10.72,10.72,0,0,1,192.52,31c1.91-2.37,4-4.38,4.67-4.38.36,0,.45.52.43.8-.15,2.06-.72,4-5.42,8.52a2.4,2.4,0,0,0-.15,1.5c.19.5.5.93,1.08.93,1.19,0,2.86-1.39,3.73-2.17Zm-4.48-2.9A13.44,13.44,0,0,0,196,29.19c-1.06.52-2.3,2.47-3.32,4.7Z"/><path d="M128.94,53.26c.17-.21.93-1.19,1.23-1.19s1,.2,1,.46a3.09,3.09,0,0,1-.49,1.08c-.48.74-2,3.25-2,4.06a.41.41,0,0,0,.42.43c.6,0,1.64-1.21,2.1-1.6-.11-.83-.13-1.22,1-2.67.34-.46,1.21-1.52,1.84-1.52s.69.69.69,1.09a5.05,5.05,0,0,1-1.47,3.05,1.24,1.24,0,0,0,.76.31c.54,0,1.3-.65,1.71-1l0,.95A3.36,3.36,0,0,1,133.47,58a2.19,2.19,0,0,1-1.3-.44c-.93.7-2.63,2.69-3.82,2.69a1,1,0,0,1-.78-.41c-.24-.31-.52-.48-.39-2.54-.8.72-2.25,2.67-3.32,2.6a2.6,2.6,0,0,1-2.27-2.9,4.85,4.85,0,0,1,1.8-3.62c1.84-1.87,2.23-2,2.69-1.93,1,0,1.27.34,1.27.69,0,1.11-2.79,3.45-3.68,4.14a4.35,4.35,0,0,0-.18,1.24c0,.17.05.48.24.48a9.05,9.05,0,0,0,2.13-1.61Z"/><path d="M143.61,56.69c-1.32,1.54-3.71,3.58-5.85,3.58-1.58,0-2.32-1.41-2.37-2.84-.08-2.84,3.06-5.75,5.88-5.73.69,0,1.56.18,1.56,1,0,1.07-1.06,2.67-5.22,4l-.05.47c-.06.83.65,1.11,1.35,1.11,1.54,0,3.36-1.58,4.51-2.49Zm-2.69-3.49c0-.15-.1-.28-.26-.24a4.74,4.74,0,0,0-2.92,2.75C139.64,55.06,141,53.57,140.92,53.2Z"/><path d="M145,55.82c-.39,1.37.13,2.5.95,2.39a2.58,2.58,0,0,0,1.46-1.13,1.44,1.44,0,0,1-.31-.84c0-1.26,1.74-3.39,3-3.39.52,0,.65.55.65,1a7.44,7.44,0,0,1-1,2.71,3,3,0,0,0,2.29-.81l.22.72a4.5,4.5,0,0,1-3.47,1.39c-.93,1-2.45,2.3-3.88,2.3s-1.6-2.11-1.6-3.15a11,11,0,0,1,3-7.09c1.76-2.1,5.16-4.75,6.07-4.75.43,0,.63.39.63.81,0,2-3.21,5.22-4.6,6.57Zm.78-2.3,0,0c4.53-4.51,5-5.75,5.38-6.53l0,0A21.66,21.66,0,0,0,145.8,53.52Z"/></g></g></svg>